<svg width="719" height="448" viewBox="0 0 719 448" fill="none" xmlns="http://www.w3.org/2000/svg">
<g clip-path="url(#clip0_11280_5955)">
<rect width="718" height="448" transform="translate(0.685547)" fill="#E33825"/>
<path d="M132.455 358.222C132.455 358.222 120.329 191.114 150.083 193.866C179.836 196.617 137.448 386.651 132.455 358.222Z" fill="#0F0E42" stroke="#CF4832" stroke-width="2" stroke-miterlimit="10"/>
<path d="M162.92 204.763C162.92 204.763 147.533 200.28 146.005 197.733C144.477 195.185 141.522 188.868 140.706 186.117C139.891 183.365 140.299 179.391 137.242 176.946C134.185 174.5 131.332 172.564 128.989 170.425C126.543 168.285 125.422 166.043 122.977 165.738C120.429 162.375 119.614 159.624 117.678 159.929C115.844 160.235 114.927 162.681 116.15 166.655C117.373 170.628 119.92 173.685 119.92 173.685C119.92 173.685 117.576 173.787 114.825 171.24C112.074 168.692 97.2992 209.654 100.458 209.756C103.617 209.96 105.043 210.164 109.527 211.285C114.01 212.405 120.327 216.787 126.136 217.908C131.944 219.029 136.936 219.742 139.891 221.168C142.846 222.595 156.806 229.829 156.806 229.829C156.806 229.829 165.467 212.507 162.92 204.763Z" fill="#FFC228" stroke="#0F0E42" stroke-width="2" stroke-miterlimit="10" stroke-linecap="round" stroke-linejoin="round"/>
<path d="M128.681 179.699C128.681 179.699 125.217 178.477 123.79 177.05C122.466 175.624 122.364 174.299 119.816 173.688" fill="white"/>
<path d="M128.681 179.699C128.681 179.699 125.217 178.477 123.79 177.05C122.466 175.624 122.364 174.299 119.816 173.688" stroke="#0F0E42" stroke-width="2" stroke-miterlimit="10" stroke-linecap="round" stroke-linejoin="round"/>
<path d="M122.876 165.736C122.876 165.736 120.838 167.061 120.226 165.125C119.513 163.291 118.494 160.845 118.494 160.845L119.004 160.336" stroke="#0F0E42" stroke-width="2" stroke-miterlimit="10" stroke-linecap="round" stroke-linejoin="round"/>
<path d="M439.564 228.809C435.386 338.448 478.997 355.159 429.578 381.856C380.159 408.552 133.879 363.005 133.879 363.005C133.879 363.005 163.327 198.75 150.182 193.859C297.217 234.617 439.87 200.075 439.564 228.809Z" fill="#0F0E42" stroke="#CF4832" stroke-width="2" stroke-miterlimit="10"/>
<path d="M395.137 274.971L398.5 276.398L395.137 284.346C394.73 285.263 394.119 285.976 393.405 286.485C392.692 286.995 391.775 287.199 390.858 287.301C389.941 287.301 388.922 287.097 387.801 286.689C386.782 286.18 385.865 285.67 385.254 284.957C384.642 284.244 384.235 283.429 384.031 282.511C383.929 281.594 384.031 280.677 384.438 279.76L387.801 271.812L391.164 273.239L387.903 280.881C387.699 281.289 387.699 281.594 387.699 282.002C387.699 282.41 387.903 282.715 388.107 283.021C388.31 283.327 388.616 283.53 389.024 283.734C389.431 283.938 389.839 283.938 390.145 283.938C390.552 283.938 390.858 283.734 391.164 283.53C391.469 283.327 391.673 283.021 391.877 282.613L395.137 274.971Z" fill="#FFC228"/>
<path d="M404.612 278.946L399.314 291.377L395.951 289.951L401.25 277.52L404.612 278.946Z" fill="#FFC228"/>
<path d="M397.074 495.27L406.754 436.477L564.59 448.704L556.234 510.86C556.234 510.86 457.6 517.483 397.074 495.27Z" fill="#0F0E42" stroke="#CF4832" stroke-width="2" stroke-miterlimit="10"/>
<path d="M475.026 225.552C476.045 223.107 527.197 199.671 556.644 239.817C586.092 279.964 488.578 352.106 488.578 352.106C488.578 352.106 440.382 308.393 475.026 225.552Z" fill="#0F0E42" stroke="#CF4832" stroke-width="2" stroke-miterlimit="10"/>
<path d="M463.203 72.6094C463.203 72.6094 433.959 129.671 394.322 147.706C398.908 152.189 418.166 162.277 418.166 162.277L438.137 145.872C438.137 145.872 431.106 160.035 422.955 165.945C434.265 171.448 444.353 172.976 444.353 172.976L452.199 160.647L472.883 82.0856L463.203 72.6094Z" fill="#0F0E42" stroke="#0F0E42" stroke-width="2" stroke-miterlimit="10"/>
<path d="M487.047 189.894C487.047 189.894 493.262 213.126 488.677 237.988C487.454 244.611 495.708 288.63 495.708 288.63C518.736 277.422 541.459 240.332 541.459 240.332C541.459 240.332 531.881 183.882 542.885 157.695C515.374 147.811 487.047 189.894 487.047 189.894Z" fill="#FFC228" stroke="#0F0E42" stroke-width="2" stroke-miterlimit="10"/>
<path d="M478.996 56.3058C478.996 56.3058 465.138 74.8507 459.636 94.6183C454.134 114.386 445.982 122.436 446.899 149.132C447.816 175.93 457.598 189.686 465.037 192.539C472.475 195.392 481.951 198.042 510.686 182.452C539.42 166.964 567.033 99.713 555.112 85.3458C543.19 70.8768 514.863 43.3651 478.996 56.3058Z" fill="#FFC228" stroke="#0F0E42" stroke-width="2" stroke-miterlimit="10"/>
<path d="M508.342 33.4844C508.342 33.4844 446.899 8.11251 441.295 79.3371C445.371 83.8205 471.048 92.991 471.048 92.991C471.048 92.991 485.619 64.7661 497.337 58.8562C493.363 63.3396 484.6 72.4082 475.735 96.5574C477.57 97.5763 477.57 97.5763 477.57 97.5763C477.57 97.5763 485.823 74.6499 496.726 62.4225C488.065 93.3986 487.657 102.773 487.657 102.773L508.24 109.804C508.24 109.804 507.119 98.3915 514.456 81.8845C514.354 101.754 511.602 111.128 511.602 111.128C511.602 111.128 520.06 115.102 525.358 114.491C530.045 105.728 535.752 88.8133 536.771 79.8466C537.891 90.4437 535.344 107.154 532.083 114.695C536.363 115.204 536.363 115.204 536.363 115.204C536.363 115.204 542.171 106.034 543.597 95.4365C542.579 114.898 521.792 176.545 483.276 203.649C496.013 205.891 504.47 205.891 504.47 205.891C504.47 205.891 528.109 180.519 536.567 167.374C520.467 196.109 509.361 206.91 509.361 206.91L540.744 209.049C540.744 209.049 561.225 186.225 566.931 175.628C558.372 192.033 546.654 210.374 546.654 210.374C546.654 210.374 595.564 218.831 612.988 206.4C624.502 198.249 603.512 174.201 612.478 132.526C621.547 90.9531 608.403 51.0103 573.453 36.2355C538.503 21.4608 508.342 33.4844 508.342 33.4844Z" fill="#0F0E42" stroke="#0F0E42" stroke-width="2" stroke-miterlimit="10"/>
<path d="M472.681 169.207C472.681 169.207 469.012 165.233 467.076 164.52C465.14 163.705 464.121 165.641 463.204 164.011C462.185 162.38 461.982 160.648 460.963 162.38C459.944 164.011 460.147 164.214 460.147 164.214C460.147 164.214 465.344 168.902 472.681 169.207Z" stroke="#0F0E42" stroke-width="2" stroke-miterlimit="10"/>
<path d="M490.205 128.958C490.205 128.958 494.383 122.845 503.044 125.494C511.807 128.143 509.056 131.913 518.736 132.626C511.501 137.11 502.432 129.671 496.319 129.366C490.205 128.958 490.205 128.958 490.205 128.958Z" fill="white" stroke="#0F0E42" stroke-width="2" stroke-miterlimit="10" stroke-linecap="round" stroke-linejoin="round"/>
<path d="M469.621 118.873C469.621 118.873 465.952 107.155 456.069 105.016C455.865 111.333 457.597 115.001 462.794 115.103C468.092 115.307 469.621 118.873 469.621 118.873Z" fill="white" stroke="#0F0E42" stroke-width="2" stroke-miterlimit="10" stroke-linecap="round" stroke-linejoin="round"/>
<path d="M475.838 114.488C475.939 114.896 472.679 134.562 464.527 141.898C456.376 149.133 464.527 154.024 464.527 154.024" stroke="#0F0E42" stroke-width="2" stroke-miterlimit="10" stroke-linecap="round" stroke-linejoin="round"/>
<path d="M456.07 105.016C455.968 109.601 456.885 112.862 459.331 114.288C461.267 113.575 462.693 111.537 463.101 108.786C461.267 107.054 458.923 105.627 456.07 105.016Z" fill="#0F0E42" stroke="#0F0E42" stroke-width="2" stroke-miterlimit="10"/>
<path d="M494.18 125.803C494.18 126.21 494.078 126.618 494.078 127.026C494.078 127.841 494.18 128.554 494.282 129.267C494.893 129.267 495.505 129.369 496.218 129.369C498.256 129.471 500.701 130.388 503.249 131.407C503.962 130.184 504.37 128.656 504.37 127.026C504.37 126.618 504.37 126.312 504.268 125.905C503.86 125.803 503.452 125.599 502.943 125.497C499.173 124.274 496.32 124.886 494.18 125.803Z" fill="#0F0E42" stroke="#0F0E42" stroke-width="2" stroke-miterlimit="10"/>
<path d="M467.076 154.027C467.382 153.823 469.522 152.906 470.846 155.453C472.171 158.001 473.19 154.129 474.209 150.664C475.228 147.2 470.642 147.811 470.642 147.811" stroke="#0F0E42" stroke-width="2" stroke-miterlimit="10" stroke-linecap="round" stroke-linejoin="round"/>
<path d="M458.414 162.277C458.72 162.277 462.388 169.41 478.182 169.614" stroke="#0F0E42" stroke-width="2" stroke-miterlimit="10" stroke-linecap="round" stroke-linejoin="round"/>
<path d="M472.681 169.207C472.681 169.207 469.012 165.233 467.076 164.52C465.14 163.705 464.121 165.641 463.204 164.011C462.185 162.38 461.982 160.648 460.963 162.38C459.944 164.011 460.147 164.214 460.147 164.214C460.147 164.214 465.344 168.902 472.681 169.207Z" stroke="#0F0E42" stroke-width="2" stroke-miterlimit="10"/>
<path d="M461.369 165.133C460.757 166.763 460.044 170.329 463.916 171.654C467.482 172.775 468.807 170.329 469.317 168.801C465.648 167.884 462.795 166.254 461.369 165.133Z" stroke="#0F0E42" stroke-width="2" stroke-miterlimit="10"/>
<path d="M475.737 219.946L439.564 228.811C439.564 228.811 404.818 436.473 406.856 436.473C408.792 436.473 491.632 440.956 491.632 440.956L482.462 225.041C482.36 221.678 479.099 219.131 475.737 219.946Z" fill="#0F0E42" stroke="#CF4832" stroke-width="2" stroke-miterlimit="10"/>
<path d="M550.835 234.418L423.67 437.393L569.38 448.703C569.38 448.703 607.489 278.844 608.711 277.214C609.73 275.889 575.595 252.861 561.534 234.112C558.783 230.444 553.28 230.648 550.835 234.418Z" fill="#0F0E42" stroke="#CF4832" stroke-width="2" stroke-miterlimit="10"/>
<path d="M583.539 51.9219C583.539 51.9219 605.752 76.6824 598.925 120.803C592.2 164.822 596.276 180.208 596.276 180.208" stroke="#CF4832" stroke-width="2" stroke-miterlimit="10" stroke-linecap="round" stroke-linejoin="round"/>
<path d="M634.59 116.016C634.59 116.016 629.699 153.105 635.711 172.364C640.093 186.323 645.697 211.084 632.654 218.522" stroke="#0F0E42" stroke-width="2" stroke-miterlimit="10" stroke-linecap="round" stroke-linejoin="round"/>
<path d="M648.956 99.5039C648.956 99.5039 640.092 128.85 641.416 154.12" stroke="#0F0E42" stroke-width="2" stroke-miterlimit="10" stroke-linecap="round" stroke-linejoin="round"/>
<path d="M546.76 39.3906C546.76 39.3906 575.8 40.919 585.174 81.2695" stroke="#CF4832" stroke-width="2" stroke-miterlimit="10" stroke-linecap="round" stroke-linejoin="round"/>
<path d="M502.534 37.4525C502.534 37.4525 466.463 21.455 453.318 57.1182" stroke="#CF4832" stroke-width="2" stroke-miterlimit="10" stroke-linecap="round" stroke-linejoin="round"/>
<path d="M545.023 275.48C546.552 272.015 555.722 252.451 567.44 241.039" stroke="#CF4832" stroke-width="2" stroke-miterlimit="10" stroke-linecap="round" stroke-linejoin="round"/>
<path d="M467.584 255.914L469.418 321.534" stroke="#CF4832" stroke-width="2" stroke-miterlimit="10" stroke-linecap="round" stroke-linejoin="round"/>
<path d="M537.894 286.18C537.894 286.18 509.771 331.319 497.238 345.279" stroke="#CF4832" stroke-width="2" stroke-miterlimit="10" stroke-linecap="round" stroke-linejoin="round"/>
<path d="M637.037 310.227C637.037 310.227 653.748 356.894 655.378 432.093" stroke="#0F0E42" stroke-width="2" stroke-miterlimit="10" stroke-linecap="round" stroke-linejoin="round"/>
<path d="M81.6074 247.461L98.1144 408.863" stroke="#0F0E42" stroke-width="2" stroke-miterlimit="10" stroke-linecap="round" stroke-linejoin="round"/>
<path d="M80.4863 331.219L90.2682 427.815" stroke="#0F0E42" stroke-width="2" stroke-miterlimit="10" stroke-linecap="round" stroke-linejoin="round"/>
<path d="M101.172 43.1595L218.351 28.9961" stroke="#0F0E42" stroke-width="2" stroke-miterlimit="10" stroke-linecap="round" stroke-linejoin="round"/>
<path d="M540.44 329.993L543.802 328.566L547.063 336.616C547.471 337.533 547.573 338.45 547.369 339.367C547.165 340.284 546.757 340.998 546.146 341.711C545.535 342.424 544.618 343.035 543.599 343.443C542.478 343.851 541.459 344.054 540.542 344.054C539.625 344.054 538.708 343.749 537.994 343.239C537.281 342.73 536.67 342.017 536.364 340.998L533.104 332.948L536.466 331.521L539.625 339.265C539.829 339.673 540.032 339.979 540.338 340.182C540.644 340.386 540.949 340.59 541.357 340.59C541.765 340.59 542.07 340.59 542.478 340.386C542.885 340.182 543.191 339.979 543.395 339.673C543.599 339.367 543.802 339.062 543.802 338.654C543.802 338.246 543.802 337.941 543.599 337.533L540.44 329.993Z" fill="#FFC228"/>
<path d="M549.915 326.121L555.01 338.654L551.647 340.081L546.553 327.548L549.915 326.121Z" fill="#FFC228"/>
<path d="M448.124 305.132L451.384 306.661L447.716 314.506C447.309 315.423 446.697 316.137 445.882 316.646C445.169 317.156 444.252 317.359 443.335 317.359C442.418 317.359 441.399 317.156 440.278 316.646C439.259 316.137 438.342 315.525 437.731 314.812C437.119 314.099 436.712 313.284 436.61 312.367C436.508 311.45 436.61 310.533 437.119 309.615L440.787 301.77L444.048 303.298L440.482 310.838C440.278 311.246 440.278 311.551 440.278 311.959C440.278 312.367 440.38 312.672 440.686 312.978C440.889 313.284 441.195 313.487 441.603 313.691C442.01 313.895 442.316 313.997 442.723 313.895C443.131 313.895 443.437 313.793 443.742 313.487C444.048 313.284 444.252 312.978 444.456 312.57L448.124 305.132Z" fill="#FFC228"/>
<path d="M457.396 309.411L451.69 321.639L448.43 320.11L454.136 307.883L457.396 309.411Z" fill="#FFC228"/>
<path d="M337.265 342.322L340.933 342.628L340.321 351.289C340.219 352.308 339.914 353.225 339.404 353.938C338.895 354.651 338.182 355.161 337.265 355.466C336.347 355.772 335.328 355.976 334.208 355.874C333.087 355.772 332.068 355.466 331.253 355.059C330.438 354.549 329.826 353.938 329.317 353.225C328.909 352.41 328.705 351.493 328.807 350.474L329.419 341.812L333.087 342.118L332.475 350.372C332.475 350.779 332.475 351.187 332.679 351.493C332.883 351.798 333.087 352.104 333.392 352.308C333.698 352.511 334.106 352.613 334.513 352.715C334.921 352.715 335.328 352.715 335.634 352.511C335.94 352.308 336.246 352.104 336.449 351.798C336.653 351.493 336.755 351.085 336.857 350.677L337.265 342.322Z" fill="#FFC228"/>
<path d="M346.13 342.935L348.066 347.011H348.168L350.715 343.241L354.791 343.546L350.308 349.966L353.976 356.996L349.798 356.691L347.862 352.513H347.76L345.213 356.283L341.035 355.977L345.722 349.558L342.258 342.527L346.13 342.935Z" fill="#FFC228"/>
<path d="M450.878 238.393L454.037 236.559L458.215 244.099C458.724 245.016 458.928 245.933 458.826 246.748C458.724 247.665 458.419 248.48 457.909 249.295C457.298 250.111 456.585 250.722 455.566 251.333C454.547 251.945 453.528 252.25 452.611 252.25C451.694 252.25 450.777 252.149 449.961 251.741C449.146 251.333 448.535 250.62 448.025 249.805L443.848 242.265L447.006 240.431L451.082 247.665C451.286 248.073 451.592 248.277 451.897 248.48C452.203 248.684 452.611 248.786 452.916 248.786C453.324 248.786 453.63 248.684 454.037 248.48C454.445 248.277 454.649 247.971 454.852 247.665C455.056 247.359 455.158 246.952 455.158 246.646C455.158 246.239 455.056 245.933 454.852 245.525L450.878 238.393Z" fill="#FFC228"/>
<path d="M458.623 234.01L462.495 236.354L462.597 236.252V231.768L466.164 229.73L465.96 237.576L472.889 241.448L469.22 243.486L465.246 241.143L465.145 241.245V245.83L461.476 247.868L461.782 239.92L454.955 235.946L458.623 234.01Z" fill="#FFC228"/>
<path opacity="0.7" d="M391.001 23.836L85.3574 57.8477L130.289 461.625L435.932 427.613L391.001 23.836Z" fill="white"/>
<path d="M390.958 23.8008L435.894 427.611L130.311 461.542" stroke="white" stroke-width="2" stroke-miterlimit="10"/>
<path d="M137.752 124.06L133.064 82.1813L141.929 81.1623L143.865 98.4845L161.799 96.4466L159.863 79.1244L168.728 78.1055L173.415 119.984L164.55 121.003L162.614 103.681L144.68 105.719L146.616 123.041L137.752 124.06Z" fill="#0F0E42"/>
<path d="M193.996 75.3555L198.684 117.234L189.819 118.253L186.049 84.7298H185.845L176.878 91.7606L175.961 83.9146L185.641 76.1706L193.996 75.3555Z" fill="#0F0E42"/>
<path d="M222.224 114.685L217.537 72.8063L226.402 71.7873L228.338 89.1095L246.271 87.0716L244.335 69.7494L253.2 68.7305L257.888 110.609L249.023 111.628L247.087 94.3061L229.153 96.344L231.089 113.666L222.224 114.685Z" fill="#0F0E42"/>
<path d="M279.385 108.879C276.124 109.287 273.271 108.879 270.826 107.861C268.38 106.842 266.342 105.109 264.814 102.868C263.285 100.626 262.368 97.7729 261.961 94.5123C261.553 91.2517 261.961 88.3986 262.878 85.7493C263.897 83.202 265.425 81.0622 267.565 79.4319C269.705 77.8015 272.354 76.8845 275.411 76.4769C277.449 76.2731 279.487 76.375 281.321 76.7826C283.155 77.2921 284.887 78.1072 286.314 79.2281C287.842 80.4508 289.065 81.9792 289.982 83.8133C291.001 85.7493 291.612 87.991 291.918 90.7422L292.224 93.0858L265.731 96.0407L265.119 90.6403L283.461 88.6024C283.359 87.3797 282.951 86.2588 282.238 85.3418C281.626 84.4247 280.709 83.7114 279.69 83.3039C278.671 82.8963 277.551 82.6925 276.226 82.8963C274.901 82.9982 273.781 83.5077 272.863 84.2209C271.946 84.9342 271.233 85.8512 270.724 86.8702C270.214 87.991 270.112 89.1119 270.214 90.3346L270.826 95.4294C271.029 96.9578 271.437 98.2824 272.15 99.4033C272.863 100.422 273.781 101.237 274.901 101.747C276.022 102.256 277.347 102.358 278.773 102.256C279.69 102.154 280.607 101.951 281.423 101.543C282.238 101.135 282.849 100.728 283.359 100.117C283.868 99.5052 284.276 98.7919 284.48 97.9767L292.631 97.5692C292.427 99.5052 291.816 101.339 290.695 102.868C289.574 104.498 288.046 105.721 286.212 106.74C284.276 107.962 282.034 108.574 279.385 108.879Z" fill="#0F0E42"/>
<path d="M308.527 105.62C306.489 105.824 304.655 105.722 303.025 105.213C301.394 104.703 300.07 103.786 298.949 102.461C297.93 101.137 297.217 99.5065 297.013 97.4686C296.809 95.7364 297.013 94.2079 297.522 92.9852C298.032 91.7625 298.847 90.6416 299.866 89.8265C300.885 89.0113 302.107 88.298 303.432 87.7886C304.757 87.2791 306.285 86.8715 307.814 86.5658C309.648 86.1582 311.074 85.8526 312.195 85.5469C313.316 85.2412 314.029 84.9355 314.539 84.5279C315.048 84.1203 315.252 83.6109 315.15 82.8976V82.7957C315.048 81.4711 314.539 80.554 313.622 79.9426C312.705 79.3313 311.584 79.1275 310.055 79.2294C308.527 79.4332 307.304 79.8408 306.387 80.6559C305.572 81.4711 305.062 82.3881 304.859 83.4071L296.707 83.6109C296.911 81.6749 297.522 79.9426 298.541 78.4142C299.56 76.8858 300.987 75.6631 302.821 74.6441C304.655 73.6252 306.795 73.0138 309.342 72.81C311.074 72.6062 312.806 72.6062 314.437 72.9119C316.067 73.1157 317.596 73.6252 318.92 74.3384C320.245 75.0517 321.366 76.0706 322.283 77.2934C323.2 78.5161 323.709 80.1464 323.913 81.9805L326.257 103.175L318.003 104.092L317.494 99.7103H317.29C316.882 100.729 316.271 101.646 315.558 102.563C314.844 103.378 313.825 104.092 312.705 104.601C311.38 105.111 310.055 105.518 308.527 105.62ZM310.259 99.4046C311.584 99.3027 312.603 98.8951 313.52 98.2837C314.437 97.6724 315.15 96.8572 315.558 95.9402C316.067 95.0231 316.169 94.0042 316.067 92.8833L315.66 89.5208C315.456 89.7246 315.048 89.9284 314.641 90.1321C314.233 90.3359 313.622 90.5397 313.112 90.7435C312.501 90.9473 311.991 91.0492 311.38 91.253C310.769 91.4568 310.259 91.5587 309.851 91.6606C308.833 91.9663 308.017 92.2719 307.202 92.6795C306.489 93.0871 305.979 93.5966 305.572 94.2079C305.164 94.8193 305.062 95.5326 305.164 96.3477C305.266 97.5705 305.878 98.3856 306.795 98.8951C307.814 99.3027 308.934 99.5065 310.259 99.4046Z" fill="#0F0E42"/>
<path d="M344.498 101.543C342.154 101.848 339.912 101.441 337.773 100.422C335.735 99.4029 334.003 97.7726 332.576 95.429C331.149 93.1873 330.334 90.2324 329.927 86.768C329.519 83.2016 329.723 80.1448 330.64 77.5974C331.557 75.05 332.882 73.114 334.716 71.6875C336.55 70.261 338.588 69.4458 340.829 69.242C342.562 69.0382 344.09 69.1401 345.313 69.6496C346.536 70.1591 347.555 70.7705 348.472 71.5856C349.287 72.4008 350 73.2159 350.408 74.0311H350.713L348.981 58.2374L357.642 57.3203L362.329 99.1992L353.77 100.116L353.261 95.1234H352.853C352.547 96.0404 352.038 96.9575 351.427 97.8745C350.815 98.7916 349.898 99.6067 348.777 100.32C347.656 100.931 346.23 101.339 344.498 101.543ZM346.536 94.3082C347.962 94.1044 349.083 93.5949 350 92.7798C350.917 91.8627 351.528 90.7419 351.936 89.3153C352.344 87.8888 352.344 86.1566 352.14 84.3225C351.936 82.4884 351.528 80.8581 350.815 79.5334C350.102 78.2088 349.287 77.1898 348.166 76.5785C347.147 75.9671 345.822 75.6614 344.498 75.8652C343.071 76.069 341.95 76.5785 341.033 77.3936C340.116 78.3107 339.505 79.4315 339.199 80.8581C338.893 82.2846 338.792 83.9149 338.995 85.749C339.199 87.5831 339.607 89.1115 340.32 90.5381C341.033 91.8627 341.848 92.8817 342.867 93.5949C343.784 94.2063 345.109 94.512 346.536 94.3082Z" fill="#0F0E42"/>
<path d="M142.54 174.812L139.381 146.384L144.578 145.772L145.902 157.796L159.047 156.369L157.722 144.346L162.919 143.734L166.077 172.163L160.881 172.774L159.556 160.649L146.412 162.075L147.736 174.201L142.54 174.812Z" fill="#0F0E42"/>
<path d="M171.374 171.555L170.966 167.785L179.729 156.984C180.544 155.965 181.258 154.947 181.767 154.131C182.277 153.316 182.684 152.501 182.99 151.788C183.194 151.075 183.296 150.259 183.194 149.546C183.092 148.629 182.786 147.916 182.277 147.304C181.767 146.693 181.156 146.285 180.443 145.98C179.729 145.674 178.812 145.572 177.997 145.674C177.08 145.776 176.265 146.082 175.552 146.489C174.94 146.999 174.431 147.508 174.125 148.323C173.819 149.139 173.717 149.954 173.819 150.871L168.928 151.38C168.725 149.546 168.928 147.916 169.642 146.489C170.355 145.063 171.374 143.942 172.699 143.025C174.023 142.108 175.653 141.598 177.589 141.394C179.525 141.191 181.258 141.394 182.786 141.904C184.315 142.413 185.537 143.331 186.454 144.451C187.371 145.572 187.983 146.999 188.085 148.527C188.187 149.546 188.085 150.667 187.779 151.686C187.473 152.807 186.862 153.928 186.047 155.354C185.13 156.679 183.907 158.411 182.277 160.347L177.895 165.849V166.053L190.326 164.627L190.836 168.906L171.374 171.555Z" fill="#0F0E42"/>
<path d="M205.614 167.785L202.455 139.356L207.652 138.745L208.976 150.769L222.121 149.342L220.796 137.318L225.993 136.707L229.152 165.136L223.955 165.747L222.63 153.622L209.486 155.048L210.81 167.174L205.614 167.785Z" fill="#0F0E42"/>
<path d="M244.026 163.91C241.887 164.114 239.951 163.91 238.32 163.197C236.69 162.484 235.365 161.363 234.346 159.834C233.327 158.306 232.716 156.37 232.41 154.128C232.207 151.886 232.41 149.95 233.022 148.218C233.633 146.486 234.754 145.06 236.079 143.939C237.505 142.818 239.237 142.206 241.275 141.901C242.6 141.799 243.823 141.799 245.045 142.105C246.268 142.41 247.389 142.92 248.408 143.735C249.427 144.55 250.242 145.569 250.955 146.894C251.669 148.218 252.076 149.747 252.28 151.683L252.484 153.211L234.958 155.147L234.55 151.785L247.185 150.358C247.083 149.441 246.778 148.524 246.268 147.811C245.759 147.097 245.147 146.588 244.332 146.18C243.517 145.875 242.702 145.671 241.683 145.773C240.664 145.875 239.747 146.282 239.034 146.792C238.32 147.403 237.811 148.116 237.403 148.932C237.098 149.747 236.894 150.664 236.996 151.683L237.301 154.638C237.403 155.86 237.811 156.879 238.32 157.796C238.83 158.612 239.543 159.223 240.46 159.631C241.377 160.038 242.294 160.14 243.415 160.038C244.128 159.936 244.842 159.732 245.351 159.529C245.962 159.223 246.37 158.917 246.778 158.408C247.185 158 247.491 157.389 247.593 156.777H252.382C252.178 158.102 251.77 159.223 251.057 160.242C250.344 161.261 249.325 162.076 248.102 162.687C247.083 163.299 245.657 163.706 244.026 163.91Z" fill="#0F0E42"/>
<path d="M263.896 161.669C262.572 161.771 261.349 161.669 260.126 161.364C259.005 160.956 258.088 160.345 257.375 159.53C256.662 158.613 256.152 157.492 256.05 156.065C255.949 154.842 256.05 153.824 256.356 153.008C256.764 152.193 257.273 151.48 257.986 150.869C258.7 150.359 259.515 149.85 260.432 149.544C261.349 149.238 262.368 148.933 263.387 148.627C264.61 148.321 265.629 148.117 266.342 147.914C267.157 147.71 267.667 147.506 267.972 147.2C268.278 146.895 268.482 146.589 268.38 146.079V145.978C268.278 144.959 267.87 144.143 267.157 143.634C266.444 143.125 265.527 142.921 264.406 143.023C263.183 143.125 262.266 143.532 261.553 144.143C260.941 144.755 260.432 145.468 260.33 146.181L255.541 146.079C255.745 144.755 256.254 143.634 256.968 142.615C257.681 141.596 258.7 140.883 259.923 140.271C261.145 139.66 262.47 139.354 263.896 139.151C264.915 139.049 265.934 139.049 267.055 139.151C268.074 139.253 269.093 139.558 270.01 140.068C270.927 140.475 271.64 141.189 272.252 142.106C272.863 143.023 273.271 144.143 273.373 145.57L275.003 159.835L270.214 160.345L269.908 157.39H269.704C269.501 158.001 269.093 158.613 268.584 159.224C268.074 159.835 267.463 160.243 266.648 160.65C265.934 161.262 265.017 161.568 263.896 161.669ZM264.813 157.899C265.832 157.797 266.648 157.492 267.361 156.982C268.074 156.473 268.584 155.861 268.889 155.148C269.195 154.435 269.297 153.722 269.297 152.906L268.991 150.359C268.889 150.461 268.584 150.665 268.278 150.767C267.87 150.869 267.463 151.072 267.055 151.174C266.648 151.276 266.138 151.48 265.731 151.582C265.323 151.684 264.915 151.786 264.61 151.888C263.896 152.091 263.183 152.295 262.674 152.601C262.062 152.906 261.655 153.314 261.349 153.722C261.043 154.129 260.941 154.741 261.043 155.352C261.145 156.269 261.553 156.982 262.266 157.288C262.877 157.797 263.795 158.001 264.813 157.899Z" fill="#0F0E42"/>
<path d="M288.15 158.918C286.52 159.122 284.889 158.816 283.463 158.103C282.036 157.39 280.813 156.269 279.896 154.74C278.979 153.212 278.368 151.276 278.062 148.932C277.757 146.589 277.96 144.551 278.572 142.819C279.183 141.086 280.1 139.762 281.323 138.743C282.546 137.724 283.972 137.214 285.603 137.011C286.825 136.909 287.946 137.011 288.761 137.316C289.576 137.622 290.29 138.131 290.799 138.641C291.309 139.15 291.716 139.66 292.124 140.169H292.328L291.105 129.572L296.098 128.961L299.256 157.39L294.264 157.899L293.856 154.537H293.55C293.347 155.046 293.041 155.657 292.633 156.269C292.226 156.88 291.614 157.492 290.901 158.001C290.392 158.51 289.373 158.816 288.15 158.918ZM289.067 154.638C290.086 154.537 291.003 154.129 291.716 153.518C292.43 152.906 292.837 151.989 293.143 150.868C293.448 149.748 293.448 148.525 293.347 147.2C293.143 145.774 292.837 144.653 292.328 143.634C291.818 142.615 291.207 141.902 290.392 141.494C289.576 140.985 288.659 140.781 287.539 140.985C286.418 141.086 285.501 141.494 284.787 142.207C284.074 142.921 283.667 143.736 283.361 144.857C283.055 145.876 283.055 147.098 283.157 148.423C283.259 149.748 283.667 150.97 284.176 151.887C284.685 152.906 285.297 153.62 286.112 154.129C287.029 154.537 288.048 154.74 289.067 154.638Z" fill="#0F0E42"/>
<path d="M306.692 127.742L309.851 156.171L304.858 156.68L301.699 128.252L306.692 127.742Z" fill="#0F0E42"/>
<path d="M314.842 130.899C314.027 131.001 313.314 130.797 312.703 130.288C312.091 129.778 311.684 129.167 311.684 128.453C311.582 127.74 311.786 127.027 312.295 126.416C312.805 125.804 313.416 125.498 314.231 125.397C315.046 125.295 315.759 125.498 316.371 126.008C316.982 126.517 317.39 127.129 317.39 127.842C317.492 128.555 317.288 129.269 316.778 129.88C316.269 130.491 315.658 130.797 314.842 130.899ZM315.046 155.557L312.703 134.261L317.695 133.752L320.039 155.048L315.046 155.557Z" fill="#0F0E42"/>
<path d="M328.906 141.395L330.333 153.928L325.34 154.438L322.996 133.142L327.785 132.632L328.193 136.3H328.397C328.804 135.078 329.415 134.059 330.434 133.142C331.453 132.327 332.778 131.817 334.306 131.613C335.733 131.409 337.058 131.613 338.28 132.123C339.401 132.632 340.42 133.447 341.133 134.568C341.847 135.689 342.356 137.116 342.56 138.848L344.088 152.4L339.096 152.909L337.669 140.071C337.465 138.644 337.058 137.523 336.242 136.81C335.427 136.097 334.306 135.791 333.084 135.893C332.167 135.995 331.453 136.3 330.842 136.708C330.231 137.217 329.721 137.829 329.415 138.542C328.906 139.459 328.804 140.376 328.906 141.395Z" fill="#0F0E42"/>
<path d="M358.558 151.176C356.418 151.38 354.482 151.176 352.852 150.462C351.221 149.749 349.897 148.628 348.878 147.1C347.859 145.572 347.247 143.635 346.942 141.394C346.738 139.152 346.942 137.216 347.553 135.484C348.164 133.752 349.285 132.325 350.61 131.204C351.935 130.083 353.769 129.472 355.807 129.166C357.131 129.065 358.354 129.065 359.577 129.37C360.799 129.676 361.92 130.185 362.939 131.001C363.958 131.816 364.773 132.835 365.487 134.159C366.2 135.484 366.607 137.012 366.811 138.948L367.015 140.477L349.489 142.413L349.081 139.05L361.716 137.624C361.615 136.707 361.309 135.79 360.799 135.076C360.29 134.363 359.679 133.854 358.863 133.446C358.048 133.14 357.233 132.937 356.214 133.038C355.195 133.14 354.278 133.548 353.565 134.057C352.852 134.669 352.342 135.382 351.935 136.197C351.629 137.012 351.425 137.929 351.527 138.948L351.833 141.903C351.934 143.126 352.342 144.145 352.852 145.062C353.361 145.877 354.074 146.489 354.991 146.896C355.908 147.304 356.825 147.406 357.946 147.304C358.66 147.202 359.373 146.998 359.882 146.794C360.494 146.489 360.901 146.183 361.309 145.673C361.716 145.164 362.022 144.654 362.124 144.043H366.913C366.709 145.368 366.302 146.489 365.588 147.508C364.875 148.526 363.856 149.342 362.633 149.953C361.716 150.564 360.29 150.972 358.558 151.176Z" fill="#0F0E42"/>
<path d="M146.509 218.114L144.268 198.244L147.834 197.837L148.751 206.192L157.922 205.173L157.004 196.818L160.571 196.41L162.812 216.28L159.246 216.687L158.329 208.23L149.159 209.249L150.076 217.706L146.509 218.114Z" fill="#0F0E42"/>
<path d="M173.717 215.365C172.29 215.568 171.068 215.467 169.947 215.059C168.826 214.651 167.909 214.142 167.196 213.327C166.482 212.512 166.075 211.595 165.871 210.474L169.539 210.066C169.641 210.576 169.845 211.085 170.252 211.391C170.66 211.798 171.068 212.002 171.679 212.206C172.188 212.41 172.902 212.41 173.513 212.308C174.226 212.206 174.838 212.002 175.347 211.696C175.857 211.391 176.264 210.983 176.468 210.474C176.774 209.964 176.774 209.455 176.774 208.843C176.672 208.232 176.468 207.723 176.162 207.315C175.755 206.907 175.347 206.602 174.634 206.398C174.022 206.194 173.309 206.194 172.392 206.296L170.66 206.5L170.354 203.749L172.086 203.545C172.8 203.443 173.411 203.239 173.819 203.035C174.328 202.73 174.634 202.322 174.94 201.914C175.143 201.405 175.245 200.896 175.245 200.386C175.143 199.775 175.041 199.367 174.736 198.96C174.43 198.552 174.022 198.246 173.513 198.144C173.004 197.941 172.494 197.941 171.883 197.941C171.271 198.042 170.762 198.144 170.252 198.45C169.743 198.756 169.335 199.061 169.132 199.571C168.826 199.979 168.724 200.488 168.826 201.099L165.361 201.507C165.26 200.386 165.463 199.367 165.973 198.45C166.482 197.533 167.196 196.82 168.214 196.208C169.233 195.597 170.354 195.291 171.577 195.088C172.902 194.986 174.124 195.088 175.143 195.495C176.162 195.903 176.977 196.412 177.589 197.227C178.2 198.042 178.608 198.858 178.71 199.877C178.812 200.997 178.608 201.915 177.996 202.832C177.385 203.647 176.57 204.258 175.551 204.564V204.768C176.977 204.768 178.098 205.175 178.913 205.99C179.729 206.704 180.238 207.723 180.34 208.945C180.442 210.066 180.238 211.085 179.729 212.002C179.219 212.919 178.404 213.734 177.385 214.346C176.366 214.753 175.143 215.161 173.717 215.365Z" fill="#0F0E42"/>
<path d="M191.242 213.122L189 193.252L192.566 192.844L193.483 201.2L202.654 200.181L201.737 191.826L205.303 191.418L207.545 211.287L203.979 211.695L203.062 203.238L193.891 204.257L194.808 212.714L191.242 213.122Z" fill="#0F0E42"/>
<path d="M217.94 210.367C216.412 210.571 215.087 210.367 213.966 209.858C212.845 209.348 211.928 208.533 211.215 207.514C210.502 206.393 210.094 205.069 209.89 203.54C209.687 202.012 209.89 200.585 210.298 199.362C210.706 198.14 211.521 197.121 212.438 196.408C213.457 195.592 214.578 195.185 216.004 194.981C216.921 194.879 217.838 194.879 218.653 195.083C219.469 195.287 220.284 195.694 220.997 196.204C221.71 196.713 222.322 197.426 222.729 198.344C223.137 199.261 223.544 200.381 223.646 201.706L223.748 202.827L211.521 204.152L211.215 201.808L220.08 200.789C219.978 200.076 219.774 199.566 219.469 199.057C219.163 198.547 218.653 198.242 218.144 197.936C217.635 197.732 217.023 197.63 216.31 197.63C215.597 197.732 214.985 197.936 214.476 198.344C213.966 198.751 213.559 199.261 213.355 199.872C213.151 200.483 213.049 201.095 213.049 201.808L213.253 203.846C213.355 204.661 213.559 205.476 213.966 205.986C214.374 206.597 214.883 207.005 215.495 207.208C216.106 207.514 216.819 207.514 217.533 207.514C218.042 207.412 218.45 207.31 218.857 207.106C219.265 206.903 219.571 206.699 219.876 206.393C220.182 206.088 220.386 205.68 220.488 205.272H223.748C223.646 206.189 223.341 207.005 222.831 207.616C222.322 208.329 221.608 208.941 220.793 209.348C220.182 209.96 219.163 210.265 217.94 210.367Z" fill="#0F0E42"/>
<path d="M231.796 208.842C230.879 208.944 229.962 208.842 229.248 208.639C228.433 208.435 227.822 207.925 227.312 207.314C226.803 206.703 226.497 205.888 226.395 204.97C226.293 204.155 226.395 203.442 226.599 202.831C226.803 202.219 227.21 201.812 227.72 201.404C228.229 200.997 228.841 200.691 229.452 200.487C230.063 200.283 230.777 200.079 231.49 199.876C232.305 199.672 233.018 199.57 233.63 199.366C234.139 199.264 234.547 199.061 234.751 198.857C234.954 198.653 235.056 198.449 235.056 198.042V197.94C234.954 197.226 234.649 196.717 234.241 196.309C233.732 196.004 233.12 195.8 232.305 195.902C231.49 196.004 230.777 196.309 230.369 196.717C229.86 197.125 229.656 197.634 229.554 198.143L226.191 198.042C226.395 197.125 226.701 196.309 227.21 195.596C227.72 194.883 228.433 194.373 229.248 193.966C230.063 193.558 230.98 193.354 231.999 193.151C232.713 193.049 233.426 193.049 234.139 193.151C234.852 193.253 235.566 193.456 236.177 193.762C236.788 194.068 237.298 194.577 237.807 195.189C238.317 195.8 238.521 196.615 238.623 197.634L239.743 207.62L236.381 208.027L236.177 205.989H236.075C235.871 206.397 235.668 206.805 235.26 207.212C234.954 207.62 234.445 207.925 233.935 208.231C233.324 208.639 232.611 208.741 231.796 208.842ZM232.509 206.193C233.222 206.091 233.834 205.888 234.241 205.582C234.751 205.276 235.056 204.869 235.362 204.359C235.566 203.85 235.668 203.34 235.566 202.831L235.362 200.997C235.26 201.098 235.056 201.2 234.852 201.302C234.649 201.404 234.343 201.506 234.037 201.608C233.732 201.71 233.426 201.812 233.12 201.914C232.815 202.015 232.509 202.016 232.305 202.117C231.796 202.219 231.286 202.423 230.98 202.627C230.573 202.831 230.267 203.136 230.063 203.442C229.86 203.748 229.758 204.155 229.86 204.563C229.962 205.174 230.267 205.684 230.777 205.989C231.082 206.193 231.694 206.295 232.509 206.193Z" fill="#0F0E42"/>
<path d="M248.71 207.01C247.59 207.112 246.469 206.908 245.45 206.5C244.431 205.991 243.616 205.176 243.004 204.157C242.291 203.036 241.883 201.711 241.782 200.081C241.578 198.451 241.68 197.024 242.087 195.801C242.495 194.579 243.106 193.662 244.023 192.948C244.838 192.235 245.857 191.828 247.08 191.726C247.997 191.624 248.71 191.726 249.322 191.929C249.933 192.133 250.443 192.439 250.748 192.846C251.156 193.254 251.462 193.56 251.665 193.865H251.767L250.952 186.427L254.417 186.02L256.658 205.889L253.194 206.297L252.888 203.953H252.684C252.582 204.361 252.277 204.768 252.073 205.176C251.767 205.583 251.36 205.991 250.85 206.399C250.239 206.602 249.627 206.908 248.71 207.01ZM249.424 203.953C250.137 203.851 250.748 203.647 251.258 203.138C251.767 202.628 252.073 202.119 252.277 201.304C252.481 200.591 252.481 199.673 252.379 198.756C252.277 197.839 252.073 197.024 251.665 196.311C251.36 195.598 250.85 195.088 250.341 194.782C249.729 194.477 249.118 194.273 248.405 194.375C247.59 194.477 246.978 194.783 246.469 195.19C245.959 195.7 245.654 196.209 245.45 197.024C245.246 197.737 245.246 198.655 245.348 199.572C245.45 200.489 245.654 201.304 246.061 202.017C246.367 202.73 246.876 203.24 247.488 203.647C247.997 203.953 248.609 204.055 249.424 203.953Z" fill="#0F0E42"/>
<path d="M261.652 185.207L263.894 205.077L260.429 205.484L258.188 185.615L261.652 185.207Z" fill="#0F0E42"/>
<path d="M267.358 187.445C266.747 187.547 266.339 187.343 265.83 187.037C265.422 186.732 265.116 186.324 265.116 185.815C265.014 185.305 265.218 184.796 265.524 184.388C265.932 183.981 266.339 183.777 266.849 183.675C267.358 183.573 267.868 183.777 268.377 184.083C268.785 184.388 269.09 184.796 269.09 185.407C269.192 185.917 268.988 186.426 268.683 186.834C268.377 187.241 267.868 187.343 267.358 187.445ZM267.46 204.563L265.83 189.687L269.294 189.279L270.924 204.156L267.46 204.563Z" fill="#0F0E42"/>
<path d="M277.14 194.676L278.159 203.337L274.695 203.745L273.064 188.868L276.427 188.461L276.733 191.008H276.936C277.14 190.091 277.65 189.378 278.363 188.868C279.076 188.257 279.993 187.951 281.114 187.849C282.133 187.747 283.05 187.849 283.865 188.257C284.68 188.563 285.394 189.174 285.903 189.989C286.413 190.804 286.718 191.721 286.82 192.944L287.839 202.42L284.375 202.828L283.356 193.861C283.254 192.842 282.948 192.129 282.337 191.619C281.726 191.11 281.012 190.906 280.095 191.008C279.484 191.11 278.974 191.314 278.465 191.619C277.955 191.925 277.65 192.333 277.446 192.944C277.038 193.352 277.038 193.963 277.14 194.676Z" fill="#0F0E42"/>
<path d="M297.821 201.504C296.293 201.708 294.968 201.504 293.847 200.994C292.726 200.485 291.809 199.67 291.096 198.651C290.383 197.53 289.975 196.205 289.771 194.677C289.568 193.148 289.771 191.722 290.179 190.499C290.587 189.276 291.402 188.258 292.319 187.544C293.338 186.729 294.459 186.321 295.885 186.118C296.802 186.016 297.719 186.016 298.534 186.22C299.349 186.423 300.165 186.831 300.878 187.34C301.591 187.85 302.203 188.563 302.61 189.48C303.12 190.397 303.425 191.518 303.527 192.843L303.629 193.964L291.402 195.288L291.096 192.945L299.961 191.926C299.859 191.212 299.655 190.703 299.349 190.194C299.044 189.684 298.534 189.378 298.025 189.073C297.515 188.869 296.904 188.767 296.191 188.767C295.477 188.869 294.866 189.073 294.357 189.48C293.847 189.888 293.44 190.397 293.236 191.009C293.032 191.62 292.93 192.231 292.93 192.945L293.134 194.983C293.236 195.798 293.44 196.613 293.847 197.122C294.255 197.734 294.764 198.141 295.376 198.345C295.987 198.651 296.7 198.651 297.413 198.651C297.923 198.549 298.331 198.447 298.738 198.243C299.146 198.039 299.451 197.836 299.757 197.53C300.063 197.224 300.267 196.817 300.368 196.409H303.629C303.527 197.326 303.222 198.141 302.712 198.753C302.203 199.466 301.489 200.077 300.674 200.485C299.961 201.096 298.942 201.402 297.821 201.504Z" fill="#0F0E42"/>
<path d="M176.968 240.307L147.295 243.609L150.597 273.282L180.27 269.98L176.968 240.307Z" fill="#0F0E42" stroke="#0F0E42" stroke-width="2" stroke-miterlimit="10" stroke-linecap="round" stroke-linejoin="round"/>
<path d="M216.917 235.917L187.244 239.219L190.546 268.892L220.219 265.59L216.917 235.917Z" fill="#E33825" stroke="#0F0E42" stroke-width="2" stroke-miterlimit="10" stroke-linecap="round" stroke-linejoin="round"/>
<path d="M256.753 231.436L227.08 234.738L230.382 264.411L260.055 261.109L256.753 231.436Z" fill="#79DBE8" stroke="#0F0E42" stroke-width="2" stroke-miterlimit="10" stroke-linecap="round" stroke-linejoin="round"/>
<path d="M296.603 227.057L266.93 230.359L270.232 260.032L299.905 256.73L296.603 227.057Z" fill="#FFC228" stroke="#0F0E42" stroke-width="2" stroke-miterlimit="10" stroke-linecap="round" stroke-linejoin="round"/>
<path d="M336.439 222.577L306.766 225.879L310.068 255.552L339.741 252.25L336.439 222.577Z" fill="#00C684" stroke="#0F0E42" stroke-width="2" stroke-miterlimit="10" stroke-linecap="round" stroke-linejoin="round"/>
<path d="M376.288 218.198L346.615 221.5L349.917 251.173L379.59 247.871L376.288 218.198Z" fill="#AA9AE5" stroke="#0F0E42" stroke-width="2" stroke-miterlimit="10" stroke-linecap="round" stroke-linejoin="round"/>
<path d="M167.604 323.673C174.638 323.673 180.341 317.97 180.341 310.936C180.341 303.902 174.638 298.199 167.604 298.199C160.57 298.199 154.867 303.902 154.867 310.936C154.867 317.97 160.57 323.673 167.604 323.673Z" fill="white" stroke="#0F0E42" stroke-width="2" stroke-miterlimit="10"/>
<path d="M206.017 304.416L203.164 304.722C203.062 304.314 202.96 304.009 202.756 303.805C202.552 303.601 202.348 303.295 202.043 303.193C201.737 302.99 201.431 302.888 201.126 302.786C200.82 302.684 200.412 302.684 200.107 302.786C199.393 302.888 198.884 303.092 198.374 303.499C197.865 303.907 197.559 304.416 197.356 305.129C197.152 305.843 197.05 306.556 197.152 307.473C197.254 308.39 197.457 309.205 197.865 309.817C198.171 310.428 198.68 310.836 199.19 311.141C199.699 311.447 200.311 311.549 201.024 311.447C201.431 311.447 201.737 311.345 202.043 311.141C202.348 310.937 202.654 310.836 202.858 310.632C203.062 310.428 203.265 310.122 203.367 309.817C203.469 309.511 203.571 309.205 203.571 308.798L206.424 308.492C206.424 309.103 206.322 309.715 206.119 310.326C205.915 310.937 205.609 311.447 205.1 311.956C204.692 312.466 204.081 312.873 203.469 313.179C202.858 313.485 202.043 313.689 201.228 313.791C200.005 313.892 198.986 313.79 197.967 313.383C196.948 312.975 196.133 312.262 195.521 311.345C194.91 310.428 194.502 309.205 194.299 307.779C194.095 306.352 194.299 305.129 194.706 304.009C195.114 302.99 195.827 302.073 196.642 301.461C197.559 300.85 198.476 300.442 199.699 300.34C200.412 300.238 201.228 300.238 201.839 300.442C202.552 300.544 203.164 300.85 203.673 301.156C204.183 301.461 204.692 301.971 205.1 302.48C205.609 302.99 205.813 303.601 206.017 304.416Z" fill="#0F0E42"/>
<path d="M211.01 306.763L211.621 312.469L208.87 312.774L207.443 299.63L210.093 299.324L210.602 304.317H210.704C210.908 303.706 211.213 303.196 211.621 302.789C212.131 302.381 212.64 302.177 213.455 302.075C214.168 301.974 214.78 302.075 215.289 302.279C215.799 302.483 216.308 302.891 216.614 303.4C216.92 303.909 217.225 304.521 217.225 305.336L217.939 311.654L215.187 311.959L214.576 306.151C214.474 305.54 214.27 305.132 213.965 304.827C213.659 304.521 213.149 304.419 212.64 304.419C212.232 304.419 211.927 304.623 211.723 304.725C211.417 304.928 211.213 305.132 211.112 305.54C211.01 305.947 211.01 306.253 211.01 306.763Z" fill="#0F0E42"/>
<path d="M224.765 311.142C223.746 311.243 222.829 311.142 222.116 310.836C221.3 310.53 220.689 310.021 220.281 309.307C219.772 308.594 219.466 307.677 219.364 306.658C219.262 305.639 219.364 304.722 219.67 303.907C219.976 303.092 220.485 302.48 221.097 301.971C221.81 301.462 222.625 301.156 223.542 301.054C224.153 300.952 224.765 301.054 225.376 301.156C225.988 301.258 226.497 301.563 227.007 301.971C227.516 302.379 227.822 302.786 228.127 303.398C228.433 304.009 228.637 304.722 228.739 305.537L228.841 306.251L220.485 307.168L220.281 305.435L226.089 304.824C226.089 304.416 225.886 304.111 225.682 303.805C225.478 303.499 225.172 303.296 224.867 303.194C224.561 303.092 224.153 302.99 223.746 303.092C223.338 303.092 222.931 303.296 222.625 303.499C222.319 303.703 222.116 304.009 221.912 304.315C221.81 304.62 221.708 305.028 221.708 305.435L221.912 307.066C222.014 307.575 222.116 307.983 222.319 308.288C222.523 308.594 222.829 308.9 223.236 309.002C223.542 309.206 223.95 309.206 224.459 309.206C224.765 309.206 225.071 309.104 225.274 309.002C225.478 308.9 225.682 308.696 225.886 308.594C226.089 308.39 226.191 308.187 226.191 307.881L228.739 307.779C228.637 308.39 228.433 309.002 228.127 309.409C227.822 309.919 227.312 310.326 226.701 310.632C226.293 310.836 225.58 311.04 224.765 311.142Z" fill="#0F0E42"/>
<path d="M231.085 310.227L229.658 297.083L232.409 296.777L233.836 309.922L231.085 310.227ZM233.225 307.171L232.817 303.91H233.225L235.976 299.834L239.134 299.529L235.466 304.929L234.855 305.031L233.225 307.171ZM237.198 309.616L233.836 305.642L235.466 303.502L240.459 309.31L237.198 309.616Z" fill="#0F0E42"/>
<path d="M245.755 308.802C244.736 308.904 243.819 308.802 243.106 308.496C242.291 308.19 241.679 307.681 241.272 306.968C240.762 306.254 240.457 305.337 240.355 304.318C240.253 303.299 240.355 302.382 240.66 301.567C240.966 300.752 241.475 300.141 242.087 299.631C242.8 299.122 243.615 298.816 244.532 298.714C245.144 298.612 245.755 298.714 246.366 298.816C246.978 298.918 247.487 299.224 247.997 299.631C248.506 300.039 248.812 300.446 249.118 301.058C249.423 301.669 249.627 302.382 249.729 303.197L249.831 303.911L241.475 304.828L241.272 303.096L247.08 302.484C247.08 302.077 246.876 301.771 246.672 301.465C246.468 301.16 246.163 300.956 245.857 300.854C245.551 300.752 245.144 300.65 244.736 300.752C244.329 300.752 243.921 300.956 243.615 301.16C243.31 301.363 243.106 301.669 242.902 301.975C242.8 302.28 242.698 302.688 242.698 303.096L242.902 304.726C243.004 305.235 243.106 305.643 243.31 305.949C243.513 306.254 243.819 306.56 244.227 306.662C244.532 306.866 244.94 306.866 245.449 306.866C245.755 306.866 246.061 306.764 246.265 306.662C246.468 306.56 246.672 306.356 246.876 306.254C247.08 306.051 247.182 305.847 247.182 305.541L249.729 305.439C249.627 306.051 249.423 306.662 249.118 307.069C248.812 307.579 248.302 307.987 247.691 308.292C247.182 308.496 246.468 308.7 245.755 308.802Z" fill="#0F0E42"/>
<path d="M260.429 293.719L261.855 306.863L259.104 307.169L257.983 296.674H257.881L255.028 298.915L254.723 296.47L257.78 294.024L260.429 293.719Z" fill="#0F0E42"/>
<path d="M171.68 360.255C178.715 360.255 184.417 354.553 184.417 347.518C184.417 340.484 178.715 334.781 171.68 334.781C164.646 334.781 158.943 340.484 158.943 347.518C158.943 354.553 164.646 360.255 171.68 360.255Z" fill="#0F0E42" stroke="#0F0E42" stroke-width="2" stroke-miterlimit="10"/>
<path d="M171.678 352.513C174.436 352.513 176.671 350.278 176.671 347.52C176.671 344.763 174.436 342.527 171.678 342.527C168.921 342.527 166.686 344.763 166.686 347.52C166.686 350.278 168.921 352.513 171.678 352.513Z" fill="white"/>
<path d="M210.093 341.096L207.24 341.402C207.138 340.994 207.036 340.688 206.832 340.484C206.628 340.281 206.425 339.975 206.119 339.873C205.813 339.669 205.508 339.567 205.202 339.466C204.896 339.364 204.489 339.364 204.183 339.466C203.47 339.567 202.96 339.771 202.451 340.179C201.941 340.586 201.636 341.096 201.432 341.809C201.228 342.522 201.126 343.236 201.228 344.153C201.33 345.07 201.534 345.885 201.941 346.496C202.247 347.108 202.756 347.515 203.266 347.821C203.775 348.127 204.387 348.228 205.1 348.127C205.508 348.127 205.813 348.025 206.119 347.821C206.425 347.719 206.73 347.515 206.934 347.311C207.138 347.108 207.342 346.802 207.444 346.496C207.545 346.191 207.647 345.885 207.647 345.477L210.5 345.172C210.5 345.783 210.398 346.394 210.195 347.006C209.991 347.617 209.685 348.127 209.176 348.636C208.768 349.146 208.157 349.553 207.545 349.859C206.934 350.165 206.119 350.368 205.304 350.47C204.081 350.572 203.062 350.47 202.043 350.063C201.024 349.655 200.209 348.942 199.598 348.025C198.986 347.108 198.579 345.885 198.375 344.458C198.171 343.032 198.375 341.809 198.782 340.688C199.19 339.669 199.903 338.752 200.718 338.141C201.636 337.53 202.553 337.122 203.775 337.02C204.489 336.918 205.304 336.918 205.915 337.122C206.628 337.224 207.24 337.53 207.749 337.835C208.259 338.141 208.768 338.65 209.176 339.16C209.685 339.669 209.889 340.281 210.093 341.096Z" fill="#0F0E42"/>
<path d="M215.086 343.345L215.697 349.051L212.946 349.356L211.52 336.212L214.169 335.906L214.678 340.899H214.78C214.984 340.288 215.29 339.778 215.697 339.371C216.207 338.963 216.716 338.759 217.531 338.657C218.245 338.556 218.856 338.657 219.365 338.861C219.875 339.065 220.384 339.473 220.69 339.982C220.996 340.492 221.301 341.103 221.301 341.918L222.015 348.236L219.264 348.541L218.652 342.733C218.55 342.122 218.346 341.714 218.041 341.409C217.735 341.103 217.226 341.001 216.716 341.001C216.309 341.001 216.003 341.205 215.799 341.307C215.493 341.51 215.29 341.714 215.188 342.122C215.086 342.631 215.086 342.937 215.086 343.345Z" fill="#0F0E42"/>
<path d="M228.841 347.825C227.822 347.927 226.905 347.825 226.192 347.519C225.377 347.214 224.765 346.704 224.358 345.991C223.848 345.278 223.542 344.361 223.441 343.342C223.339 342.323 223.441 341.406 223.746 340.591C224.052 339.775 224.561 339.164 225.173 338.655C225.886 338.145 226.701 337.839 227.618 337.738C228.23 337.636 228.841 337.737 229.452 337.839C230.064 337.941 230.573 338.247 231.083 338.655C231.592 339.062 231.898 339.47 232.204 340.081C232.509 340.692 232.713 341.406 232.815 342.221L232.917 342.934L224.561 343.851L224.358 342.119L230.166 341.508C230.166 341.1 229.962 340.794 229.758 340.489C229.554 340.183 229.249 339.979 228.943 339.877C228.637 339.775 228.23 339.674 227.822 339.775C227.414 339.775 227.007 339.979 226.701 340.183C226.396 340.387 226.192 340.692 225.988 340.998C225.886 341.304 225.784 341.711 225.784 342.119L225.988 343.749C226.09 344.259 226.192 344.666 226.396 344.972C226.599 345.278 226.905 345.583 227.313 345.685C227.618 345.889 228.026 345.889 228.535 345.889C228.841 345.889 229.147 345.787 229.35 345.685C229.554 345.583 229.758 345.38 229.962 345.278C230.166 345.074 230.268 344.87 230.268 344.564L232.815 344.463C232.713 345.074 232.509 345.685 232.204 346.093C231.898 346.602 231.388 347.01 230.777 347.316C230.369 347.519 229.656 347.723 228.841 347.825Z" fill="#0F0E42"/>
<path d="M235.161 346.907L233.734 333.763L236.486 333.457L237.912 346.601L235.161 346.907ZM237.301 343.85L236.893 340.59H237.301L240.052 336.514L243.211 336.208L239.542 341.609L238.931 341.711L237.301 343.85ZM241.275 346.296L237.912 342.322L239.542 340.182L244.535 345.99L241.275 346.296Z" fill="#0F0E42"/>
<path d="M249.831 345.481C248.812 345.583 247.895 345.481 247.182 345.176C246.367 344.87 245.755 344.361 245.348 343.647C244.838 342.934 244.533 342.017 244.431 340.998C244.329 339.979 244.431 339.062 244.736 338.247C245.042 337.432 245.552 336.82 246.163 336.311C246.876 335.801 247.691 335.496 248.608 335.394C249.22 335.292 249.831 335.394 250.443 335.496C251.054 335.598 251.563 335.903 252.073 336.311C252.582 336.718 252.888 337.126 253.194 337.737C253.499 338.349 253.703 339.062 253.805 339.877L253.907 340.59L245.552 341.507L245.348 339.775L251.156 339.164C251.156 338.756 250.952 338.451 250.748 338.145C250.544 337.839 250.239 337.635 249.933 337.534C249.627 337.432 249.22 337.33 248.812 337.432C248.405 337.432 247.997 337.635 247.691 337.839C247.386 338.043 247.182 338.349 246.978 338.654C246.876 338.96 246.774 339.368 246.774 339.775L246.978 341.406C247.08 341.915 247.182 342.323 247.386 342.628C247.59 342.934 247.895 343.24 248.303 343.342C248.608 343.545 249.016 343.545 249.526 343.545C249.831 343.545 250.137 343.443 250.341 343.342C250.544 343.24 250.748 343.036 250.952 342.934C251.156 342.73 251.258 342.526 251.258 342.221L253.805 342.119C253.703 342.73 253.499 343.342 253.194 343.749C252.888 344.259 252.379 344.666 251.767 344.972C251.258 345.176 250.646 345.379 249.831 345.481Z" fill="#0F0E42"/>
<path d="M260.225 344.156L260.022 342.118L264.199 337.227C264.505 336.819 264.811 336.412 265.116 336.106C265.32 335.8 265.524 335.393 265.626 335.087C265.728 334.782 265.728 334.476 265.728 334.068C265.728 333.661 265.524 333.355 265.32 333.049C265.116 332.744 264.811 332.642 264.505 332.438C264.199 332.336 263.792 332.234 263.486 332.336C263.079 332.336 262.773 332.54 262.467 332.744C262.161 332.947 261.958 333.151 261.856 333.559C261.754 333.864 261.652 334.272 261.754 334.68L259.105 334.985C259.003 334.17 259.105 333.355 259.41 332.642C259.716 331.928 260.225 331.419 260.837 331.011C261.55 330.604 262.263 330.298 263.18 330.196C264.097 330.094 265.015 330.196 265.728 330.4C266.441 330.604 267.052 331.011 267.562 331.623C267.969 332.132 268.275 332.846 268.377 333.559C268.479 334.068 268.377 334.578 268.275 335.087C268.173 335.597 267.868 336.208 267.46 336.819C267.052 337.431 266.441 338.246 265.626 339.163L263.894 341.303V341.405L269.396 340.793L269.6 343.035L260.225 344.156Z" fill="#0F0E42"/>
<path d="M286.822 409.574L173.718 422.107C170.152 422.515 166.891 419.967 166.484 416.299L164.242 395.818C163.834 392.252 166.382 388.991 170.05 388.584L283.153 376.051C286.72 375.643 289.98 378.19 290.388 381.859L292.63 402.34C293.037 405.906 290.388 409.166 286.822 409.574Z" fill="#0F0E42" stroke="#0F0E42" stroke-width="2" stroke-miterlimit="10"/>
<path d="M198.378 409.056L193.487 403.962L192.672 404.063L193.283 409.668L190.532 409.973L189.105 396.829L191.857 396.523L192.468 401.72L193.079 401.618L197.257 395.81L200.823 395.402L195.831 402.331L201.842 408.649L198.378 409.056Z" fill="white"/>
<path d="M203.677 408.449L202.25 395.305L205.001 394.999L205.613 400.4L211.217 399.788L210.605 394.388L213.357 394.082L214.783 407.226L212.032 407.532L211.421 402.132L205.816 402.743L206.428 408.144L203.677 408.449Z" fill="white"/>
<path d="M228.538 399.072C228.742 400.499 228.538 401.721 228.131 402.842C227.723 403.861 227.01 404.778 226.195 405.389C225.278 406.001 224.36 406.408 223.138 406.51C222.017 406.612 220.896 406.51 219.877 406.103C218.858 405.695 218.043 404.982 217.432 404.065C216.82 403.148 216.413 401.925 216.209 400.499C216.005 399.072 216.209 397.849 216.616 396.728C217.024 395.709 217.737 394.792 218.552 394.181C219.469 393.57 220.387 393.162 221.609 393.06C222.73 392.958 223.851 393.06 224.87 393.468C225.889 393.875 226.704 394.589 227.315 395.506C227.927 396.525 228.334 397.645 228.538 399.072ZM225.685 399.378C225.583 398.461 225.379 397.645 224.972 397.034C224.666 396.423 224.157 396.015 223.647 395.709C223.138 395.404 222.526 395.302 221.813 395.404C221.1 395.506 220.59 395.709 220.081 396.117C219.571 396.525 219.266 397.034 219.062 397.645C218.858 398.359 218.756 399.072 218.96 399.989C219.062 400.906 219.266 401.721 219.673 402.333C219.979 402.944 220.488 403.352 220.998 403.657C221.507 403.963 222.119 404.065 222.832 403.963C223.545 403.861 224.055 403.657 224.564 403.25C225.074 402.842 225.379 402.333 225.583 401.721C225.685 401.11 225.787 400.295 225.685 399.378Z" fill="white"/>
<path d="M240.971 391.125L242.397 404.269L239.646 404.575L238.423 393.672L233.125 394.284L234.348 405.186L231.596 405.492L230.17 392.348L240.971 391.125Z" fill="white"/>
<path d="M252.892 403.048L248.001 397.954L247.185 398.056L247.797 403.66L245.046 403.966L243.619 390.821L246.37 390.515L246.982 395.712L247.593 395.61L251.771 389.802L255.337 389.395L250.344 396.323L256.356 402.641L252.892 403.048Z" fill="white"/>
<path d="M260.533 402.131L257.578 402.437L260.635 388.783L264.201 388.375L270.213 401.01L267.258 401.316L262.877 391.534H262.775L260.533 402.131ZM259.82 397.036L266.851 396.221L267.054 398.361L260.024 399.176L259.82 397.036Z" fill="white"/>
<path d="M94.0366 178.586C93.7309 178.383 90.0627 174.714 90.6741 172.371C91.1835 170.027 100.66 164.219 103.309 161.978C105.856 159.736 109.117 161.162 111.257 164.423C113.397 167.684 115.231 170.74 117.574 172.065C122.465 174.307 118.797 176.548 116.148 175.835C113.499 175.122 105.653 169.62 105.653 169.62L97.501 178.179L94.0366 178.586Z" fill="#FFC228" stroke="#0F0E42" stroke-width="2" stroke-miterlimit="10" stroke-linecap="round" stroke-linejoin="round"/>
<path d="M114.924 173.593C114.924 173.593 114.516 171.759 116.554 171.352C117.471 171.963 117.777 172.167 119 172.982C118.796 173.797 118.185 174.918 118.185 174.918C118.185 174.918 116.045 174.816 114.924 173.593Z" fill="#FFC228" stroke="#0F0E42" stroke-width="2" stroke-miterlimit="10" stroke-linecap="round" stroke-linejoin="round"/>
<path d="M104.635 167.074C104.635 167.38 104.839 169.112 105.654 169.622L104.635 167.074Z" fill="#FFC228"/>
<path d="M104.635 167.074C104.635 167.38 104.839 169.112 105.654 169.622" stroke="#0F0E42" stroke-width="2" stroke-miterlimit="10" stroke-linecap="round" stroke-linejoin="round"/>
<path d="M113.193 172.369C113.193 172.369 113.703 169.924 114.824 169.414L113.193 172.369Z" fill="#FFC228"/>
<path d="M113.193 172.369C113.193 172.369 113.703 169.924 114.824 169.414" stroke="#0F0E42" stroke-width="2" stroke-miterlimit="10" stroke-linecap="round" stroke-linejoin="round"/>
<path d="M111.766 171.048C111.766 171.048 112.275 168.908 113.905 168.398L111.766 171.048Z" fill="#FFC228"/>
<path d="M111.766 171.048C111.766 171.048 112.275 168.908 113.905 168.398" stroke="#0F0E42" stroke-width="2" stroke-miterlimit="10" stroke-linecap="round" stroke-linejoin="round"/>
<path d="M106.365 163.097C106.365 163.097 107.384 161.568 107.079 160.957L106.365 163.097Z" fill="#FFC228"/>
<path d="M106.365 163.097C106.365 163.097 107.384 161.568 107.079 160.957" stroke="#0F0E42" stroke-width="2" stroke-miterlimit="10" stroke-linecap="round" stroke-linejoin="round"/>
<path d="M94.037 186.022C93.6294 185.309 90.5726 181.743 91.5915 179.196C92.6105 176.546 96.4825 175.527 102.596 174.814C108.71 174.101 112.276 174.203 114.212 177.973C116.148 181.845 116.963 184.596 120.428 186.94C123.892 189.283 121.141 192.748 117.779 190.302C114.416 187.857 108.71 181.947 108.404 181.947C107.997 181.845 94.037 186.022 94.037 186.022Z" fill="#FFC228" stroke="#0F0E42" stroke-width="2" stroke-miterlimit="10" stroke-linecap="round" stroke-linejoin="round"/>
<path d="M117.269 188.364C117.269 188.364 116.555 185.919 119.001 185.613C120.529 186.836 121.854 188.263 121.854 188.263C121.854 188.263 120.631 188.772 120.427 189.995C118.593 189.18 117.269 188.364 117.269 188.364Z" fill="#FFC228" stroke="#0F0E42" stroke-width="2" stroke-miterlimit="10" stroke-linecap="round" stroke-linejoin="round"/>
<path d="M109.424 179.298C109.424 179.298 109.73 176.955 110.85 175.324L109.424 179.298Z" fill="#FFC228"/>
<path d="M109.424 179.298C109.424 179.298 109.73 176.955 110.85 175.324" stroke="#0F0E42" stroke-width="2" stroke-miterlimit="10" stroke-linecap="round" stroke-linejoin="round"/>
<path d="M94.6488 195.905C94.6488 195.905 90.6749 189.282 92.509 186.531C94.3431 183.78 97.0943 183.372 100.151 182.455C105.144 181.131 105.857 179.806 109.22 182.455C112.582 185.003 113.296 187.041 116.658 189.588C117.779 190.403 120.224 196.313 111.054 192.441C101.883 188.569 100.457 189.792 99.6416 190.607C98.8265 191.422 94.6488 195.905 94.6488 195.905Z" fill="#FFC228" stroke="#0F0E42" stroke-width="2" stroke-miterlimit="10" stroke-linecap="round" stroke-linejoin="round"/>
<path d="M113.5 191.521C113.398 191.419 111.971 189.483 114.621 188.566C114.824 188.566 116.455 189.382 117.27 190.502C116.76 191.827 115.843 193.152 115.843 193.152C115.843 193.152 114.519 192.642 113.5 191.521Z" fill="#FFC228" stroke="#0F0E42" stroke-width="2" stroke-miterlimit="10" stroke-linecap="round" stroke-linejoin="round"/>
<path d="M105.143 186.02C105.143 186.02 104.532 186.427 105.652 189.076L105.143 186.02Z" fill="#FFC228"/>
<path d="M105.143 186.02C105.143 186.02 104.532 186.427 105.652 189.076" stroke="#0F0E42" stroke-width="2" stroke-miterlimit="10" stroke-linecap="round" stroke-linejoin="round"/>
<path d="M94.5469 189.078C94.5469 189.078 95.0563 191.829 96.5848 192.644L94.5469 189.078Z" fill="#FFC228"/>
<path d="M94.5469 189.078C94.5469 189.078 95.0563 191.829 96.5848 192.644" stroke="#0F0E42" stroke-width="2" stroke-miterlimit="10" stroke-linecap="round" stroke-linejoin="round"/>
<path d="M101.781 198.453L105.449 195.498C105.449 195.498 108.099 199.064 112.378 196.822C114.111 195.294 112.276 193.867 110.035 191.422C108.914 190.199 106.57 189.282 104.532 188.671C102.495 188.059 99.6414 188.263 98.3168 189.384C96.4827 190.811 94.241 192.95 93.1202 195.498C91.2861 199.879 91.6936 203.14 94.8524 206.706C98.0111 210.272 97.6035 210.374 101.985 210.272" fill="#FFC228"/>
<path d="M101.781 198.453L105.449 195.498C105.449 195.498 108.099 199.064 112.378 196.822C114.111 195.294 112.276 193.867 110.035 191.422C108.914 190.199 106.57 189.282 104.532 188.671C102.495 188.059 99.6414 188.263 98.3168 189.384C96.4827 190.811 94.241 192.95 93.1202 195.498C91.2861 199.879 91.6936 203.14 94.8524 206.706C98.0111 210.272 97.6035 210.374 101.985 210.272" stroke="#0F0E42" stroke-width="2" stroke-miterlimit="10" stroke-linecap="round" stroke-linejoin="round"/>
<path d="M97.5039 200.087C97.5039 200.087 99.9494 199.985 101.783 198.457L97.5039 200.087Z" fill="#FFC228"/>
<path d="M97.5039 200.087C97.5039 200.087 99.9494 199.985 101.783 198.457" stroke="#0F0E42" stroke-width="2" stroke-miterlimit="10" stroke-linecap="round" stroke-linejoin="round"/>
<path d="M99.4375 193.664C99.4375 193.664 100.558 197.027 103.513 197.128L99.4375 193.664Z" fill="#FFC228"/>
<path d="M99.4375 193.664C99.4375 193.664 100.558 197.027 103.513 197.128" stroke="#0F0E42" stroke-width="2" stroke-miterlimit="10" stroke-linecap="round" stroke-linejoin="round"/>
<path d="M105.449 192.949C105.449 192.949 104.431 193.968 105.348 195.497L105.449 192.949Z" fill="#FFC228"/>
<path d="M105.449 192.949C105.449 192.949 104.431 193.968 105.348 195.497" stroke="#0F0E42" stroke-width="2" stroke-miterlimit="10" stroke-linecap="round" stroke-linejoin="round"/>
<path d="M108.2 194.782C108.098 194.578 107.997 193.355 109.729 192.234C111.563 193.559 112.582 194.374 112.582 194.374L111.359 196.616C111.359 196.616 108.914 196.718 108.2 194.782Z" fill="#FFC228" stroke="#0F0E42" stroke-width="2" stroke-miterlimit="10" stroke-linecap="round" stroke-linejoin="round"/>
<path d="M464.936 361.477C464.936 361.477 447.919 359.439 445.779 356.993C443.741 354.548 439.462 348.434 438.137 345.581C436.813 342.83 436.507 338.55 432.839 336.512C429.17 334.474 425.91 332.946 422.955 331.01C420 329.074 418.37 326.934 415.822 327.138C412.562 324.081 411.135 321.33 409.301 321.941C407.365 322.553 406.957 325.406 408.893 329.278C410.829 333.252 414.09 336.105 414.09 336.105C414.09 336.105 411.645 336.614 408.282 334.474C404.919 332.233 398.908 329.278 395.851 328.87C392.896 328.463 386.273 325.915 384.133 325.915C383.114 325.915 382.299 326.017 381.28 326.119C380.159 326.221 378.631 326.425 376.083 326.323C373.841 326.425 372.517 329.583 374.86 330.908C377.204 332.233 383.42 333.048 387.597 333.455C392.998 336.105 395.239 338.041 399.01 338.55C403.901 341.709 404.818 344.358 404.818 344.358C404.818 344.358 406.957 348.128 404.002 346.804C401.047 345.479 393.303 340.486 389.431 339.977C385.559 339.467 378.529 336.41 376.796 335.799C375.064 335.188 373.536 335.086 369.766 334.78C365.996 334.372 366.199 334.984 365.282 336.818C364.365 338.652 366.403 340.894 369.358 341.913C372.211 342.932 377.408 345.173 380.159 346.09C382.91 347.007 386.782 348.842 388.616 349.453C390.45 350.166 394.628 350.676 396.462 351.593C398.296 352.408 401.251 354.65 400.946 355.77C400.64 356.891 400.334 358.114 400.334 358.114C400.334 358.114 394.119 357.503 391.367 355.465C388.616 353.529 385.763 353.733 381.484 352.917C377.204 352.102 371.09 350.472 369.664 350.472C368.237 350.472 367.015 350.981 367.218 353.121C367.422 355.261 368.441 356.891 373.638 357.91C378.834 358.929 381.687 360.356 383.827 361.477C385.967 362.597 388.107 362.495 391.775 363.82C395.443 365.145 398.5 366.062 399.723 367.285C400.844 368.507 400.844 370.239 397.379 370.545C393.915 370.851 392.488 371.768 392.488 371.768C392.488 371.768 389.024 369.017 386.171 367.998C384.133 364.839 381.382 364.024 379.038 364.228C377.612 364.737 377.815 365.96 379.853 367.896C381.789 369.832 382.808 372.481 382.808 372.481C382.808 372.481 387.597 376.761 388.616 376.863C389.635 376.965 396.258 378.085 399.621 377.78C402.983 377.474 404.512 377.372 409.403 377.78C414.294 378.187 421.732 381.754 428.152 381.957C434.571 382.161 439.869 381.957 443.232 382.976C446.594 383.995 462.592 389.192 462.592 389.192C462.592 389.192 469.011 369.221 464.936 361.477Z" fill="#FFC228" stroke="#0F0E42" stroke-width="2" stroke-miterlimit="10" stroke-linecap="round" stroke-linejoin="round"/>
<path d="M424.382 340.891C424.382 340.891 420.51 340.177 418.777 338.955C417.045 337.63 416.841 336.305 413.988 336.102" fill="white"/>
<path d="M424.382 340.891C424.382 340.891 420.51 340.177 418.777 338.955C417.045 337.63 416.841 336.305 413.988 336.102" stroke="#0F0E42" stroke-width="2" stroke-miterlimit="10" stroke-linecap="round" stroke-linejoin="round"/>
<path d="M415.823 327.141C415.823 327.141 413.887 328.874 412.868 326.938C411.849 325.103 410.32 322.76 410.32 322.76L410.83 322.148" stroke="#0F0E42" stroke-width="2" stroke-miterlimit="10" stroke-linecap="round" stroke-linejoin="round"/>
<path d="M375.37 326.424C373.739 327.442 374.351 329.582 374.351 329.582C374.351 329.582 378.223 329.99 379.649 329.378C379.649 329.378 380.362 327.137 381.993 325.914" stroke="#0F0E42" stroke-width="2" stroke-miterlimit="10" stroke-linecap="round" stroke-linejoin="round"/>
<path d="M371.905 334.984C371.905 334.984 369.46 337.226 369.867 338.958C367.116 338.856 366.301 338.856 365.078 338.041" stroke="#0F0E42" stroke-width="2" stroke-miterlimit="10" stroke-linecap="round" stroke-linejoin="round"/>
<path d="M373.025 351.082C373.025 351.082 373.534 354.343 372.006 354.954C368.44 354.75 367.217 353.018 367.217 353.018" stroke="#0F0E42" stroke-width="2" stroke-miterlimit="10" stroke-linecap="round" stroke-linejoin="round"/>
<path d="M381.077 369.224C381.077 369.224 383.115 368.205 381.994 366.778C380.873 365.352 379.141 364.129 379.141 364.129" stroke="#0F0E42" stroke-width="2" stroke-miterlimit="10" stroke-linecap="round" stroke-linejoin="round"/>
<path d="M410.116 344.459C410.116 344.459 407.161 343.95 404.613 344.357L410.116 344.459Z" fill="white"/>
<path d="M410.116 344.459C410.116 344.459 407.161 343.95 404.613 344.357" stroke="#0F0E42" stroke-width="2" stroke-miterlimit="10" stroke-linecap="round" stroke-linejoin="round"/>
<path d="M404.715 359.34L400.334 358.117" stroke="#0F0E42" stroke-width="2" stroke-miterlimit="10" stroke-linecap="round" stroke-linejoin="round"/>
<path d="M404.002 357.397C404.002 357.397 401.862 355.664 400.334 354.34L404.002 357.397Z" fill="white"/>
<path d="M404.002 357.397C404.002 357.397 401.862 355.664 400.334 354.34" stroke="#0F0E42" stroke-width="2" stroke-miterlimit="10" stroke-linecap="round" stroke-linejoin="round"/>
<path d="M407.976 348.843C407.976 348.843 405.836 347.824 403.9 346.805L407.976 348.843Z" fill="white"/>
<path d="M407.976 348.843C407.976 348.843 405.836 347.824 403.9 346.805" stroke="#0F0E42" stroke-width="2" stroke-miterlimit="10" stroke-linecap="round" stroke-linejoin="round"/>
<path d="M405.328 369.018C405.328 369.018 402.577 367.795 397.686 365.961L405.328 369.018Z" fill="white"/>
<path d="M405.328 369.018C405.328 369.018 402.577 367.795 397.686 365.961" stroke="#0F0E42" stroke-width="2" stroke-miterlimit="10" stroke-linecap="round" stroke-linejoin="round"/>
<path d="M597.809 277.209C597.809 277.209 606.572 263.758 617.475 279.145C628.377 294.531 648.349 408.347 640.707 452.468C632.963 496.589 567.037 544.479 512.523 534.392C458.518 524.406 441.4 522.979 441.4 522.979C441.4 522.979 438.649 352.509 463.002 354.751C487.355 356.992 548.288 379.104 562.757 392.452C577.226 405.8 561.534 390.618 553.179 385.829C544.518 381.04 575.698 300.135 597.809 277.209Z" fill="#0F0E42" stroke="#CF4832" stroke-width="2" stroke-miterlimit="10"/>
<path d="M587.005 421.803L590.367 423.23L587.005 431.178C586.597 432.095 585.986 432.808 585.272 433.317C584.559 433.827 583.642 434.031 582.725 434.133C581.808 434.133 580.789 433.929 579.668 433.521C578.649 433.012 577.732 432.502 577.121 431.789C576.509 431.076 576.102 430.261 575.898 429.344C575.796 428.426 575.898 427.509 576.306 426.592L579.668 418.645L583.031 420.071L579.77 427.713C579.566 428.121 579.566 428.426 579.566 428.834C579.566 429.242 579.77 429.547 579.974 429.853C580.178 430.159 580.483 430.362 580.891 430.566C581.299 430.77 581.706 430.77 582.012 430.77C582.419 430.77 582.725 430.566 583.031 430.362C583.336 430.159 583.54 429.853 583.744 429.445L587.005 421.803Z" fill="#FFC228"/>
<path d="M596.479 425.677L591.181 438.108L587.818 436.681L593.117 424.25L596.479 425.677Z" fill="#FFC228"/>
<path d="M611.462 315.016L612.888 318.379L604.94 321.742C604.023 322.149 603.106 322.251 602.189 322.047C601.272 321.843 600.559 321.436 599.846 320.824C599.132 320.213 598.521 319.296 598.113 318.277C597.706 317.156 597.502 316.137 597.502 315.22C597.502 314.303 597.808 313.386 598.317 312.673C598.827 311.96 599.54 311.348 600.457 310.941L608.405 307.578L609.831 310.941L602.189 314.201C601.782 314.405 601.476 314.609 601.272 314.915C601.068 315.22 600.865 315.526 600.865 315.933C600.865 316.341 600.864 316.647 601.068 317.054C601.272 317.462 601.476 317.768 601.782 317.971C602.087 318.175 602.393 318.379 602.8 318.379C603.208 318.379 603.514 318.379 603.921 318.175L611.462 315.016Z" fill="#FFC228"/>
<path d="M614.929 323.169L612.178 326.735V326.837L616.661 327.346L618.291 331.116L610.547 329.996L605.962 336.517L604.332 332.645L607.083 328.977V328.875L602.497 328.365L600.867 324.493L608.713 325.716L613.4 319.398L614.929 323.169Z" fill="#FFC228"/>
<path d="M470.748 391.44L473.906 389.605L478.084 397.146C478.593 398.063 478.797 398.98 478.695 399.795C478.593 400.712 478.288 401.527 477.778 402.342C477.167 403.158 476.454 403.769 475.435 404.38C474.416 404.992 473.397 405.297 472.48 405.297C471.563 405.297 470.646 405.195 469.83 404.788C469.015 404.38 468.404 403.667 467.894 402.852L463.717 395.312L466.876 393.477L470.951 400.712C471.155 401.12 471.461 401.323 471.766 401.527C472.072 401.731 472.48 401.833 472.785 401.833C473.193 401.833 473.499 401.731 473.906 401.527C474.314 401.323 474.518 401.018 474.721 400.712C474.925 400.406 475.027 399.999 475.027 399.693C475.027 399.285 474.925 398.98 474.721 398.572L470.748 391.44Z" fill="#FFC228"/>
<path d="M478.389 387.159L482.261 389.502L482.363 389.4V384.917L485.929 382.879L485.725 390.725L492.654 394.597L488.986 396.635L485.012 394.291L484.91 394.393V398.978L481.242 401.016L481.548 393.068L474.721 389.095L478.389 387.159Z" fill="#FFC228"/>
</g>
<defs>
<clipPath id="clip0_11280_5955">
<rect width="718" height="448" fill="white" transform="translate(0.685547)"/>
</clipPath>
</defs>
</svg>
