<svg width="207" height="207" viewBox="0 0 207 207" fill="none" xmlns="http://www.w3.org/2000/svg">
<g clip-path="url(#clip0_0_5184)">
<path d="M103.13 206.26C160.087 206.26 206.26 160.087 206.26 103.13C206.26 46.1729 160.087 0 103.13 0C46.1729 0 0 46.1729 0 103.13C0 160.087 46.1729 206.26 103.13 206.26Z" fill="#1B1B41"/>
<path d="M124.58 18.63C124.511 18.8167 124.483 19.0159 124.497 19.2144C124.511 19.4129 124.567 19.6061 124.662 19.7812C124.756 19.9563 124.887 20.1091 125.045 20.2296C125.204 20.3501 125.386 20.4355 125.58 20.48C125.978 20.6027 126.398 20.6335 126.81 20.57V21.16C126.317 21.2237 125.816 21.1828 125.34 21.04C125.052 20.9861 124.779 20.8695 124.541 20.6986C124.303 20.5277 124.106 20.3066 123.963 20.051C123.82 19.7953 123.735 19.5114 123.713 19.2192C123.692 18.927 123.735 18.6337 123.84 18.36C123.884 18.0702 123.989 17.7927 124.146 17.5451C124.303 17.2976 124.51 17.0853 124.753 16.9218C124.997 16.7582 125.271 16.647 125.56 16.595C125.849 16.5431 126.145 16.5516 126.43 16.62C126.676 16.6924 126.904 16.8153 127.101 16.9807C127.297 17.1462 127.456 17.3506 127.569 17.581C127.682 17.8114 127.746 18.0627 127.756 18.3191C127.767 18.5754 127.724 18.8312 127.63 19.07C127.6 19.1898 127.56 19.3068 127.51 19.42L124.58 18.63ZM126.97 18.68C127.033 18.5332 127.064 18.3746 127.061 18.2148C127.059 18.0551 127.022 17.8977 126.954 17.7531C126.886 17.6085 126.788 17.48 126.667 17.376C126.545 17.2721 126.403 17.195 126.25 17.15C125.928 17.0899 125.595 17.1518 125.316 17.3237C125.036 17.4956 124.831 17.7652 124.74 18.08L126.97 18.68Z" fill="#FBF9F6"/>
<path d="M128.05 20.86C128.287 21.1462 128.598 21.3609 128.95 21.48C129.49 21.66 129.84 21.48 129.95 21.12C130.06 20.76 129.95 20.49 129.42 20.12C128.76 19.62 128.54 19.12 128.7 18.6C128.762 18.4248 128.86 18.2646 128.988 18.1296C129.115 17.9946 129.27 17.8878 129.441 17.8162C129.613 17.7446 129.797 17.7097 129.983 17.7138C130.169 17.7179 130.352 17.7609 130.52 17.84C130.876 17.9463 131.198 18.1466 131.45 18.42L131.09 18.91C130.887 18.6702 130.62 18.4932 130.32 18.4C130.241 18.359 130.154 18.3353 130.065 18.3305C129.976 18.3256 129.887 18.3397 129.803 18.3719C129.72 18.404 129.645 18.4535 129.582 18.5169C129.52 18.5804 129.471 18.6564 129.44 18.74C129.33 19.08 129.53 19.32 130.01 19.74C130.64 20.24 130.9 20.74 130.7 21.33C130.5 21.92 129.7 22.4 128.75 22.08C128.341 21.9575 127.97 21.734 127.67 21.43L128.05 20.86Z" fill="#FBF9F6"/>
<path d="M134 17.81L133.6 19L134.67 19.38L134.46 19.95L133.39 19.56L132.59 21.77C132.41 22.28 132.45 22.62 132.86 22.77C133.005 22.824 133.156 22.8609 133.31 22.88L133.15 23.45C132.91 23.4457 132.673 23.3983 132.45 23.31C132.299 23.2647 132.159 23.1878 132.04 23.0844C131.921 22.9809 131.826 22.8533 131.76 22.71C131.643 22.3182 131.679 21.8966 131.86 21.53L132.67 19.3L132.03 19.07L132.24 18.5L132.87 18.73L133.23 17.73L134 17.81Z" fill="#FBF9F6"/>
<path d="M134 23.27C134.045 23.1767 134.116 23.0985 134.204 23.0449C134.292 22.9914 134.395 22.965 134.498 22.9688C134.601 22.9727 134.701 23.0067 134.786 23.0667C134.87 23.1267 134.935 23.21 134.972 23.3064C135.01 23.4028 135.018 23.508 134.997 23.6091C134.975 23.7103 134.924 23.8029 134.851 23.8756C134.777 23.9482 134.684 23.9978 134.582 24.0181C134.481 24.0385 134.376 24.0287 134.28 23.99C134.213 23.9629 134.152 23.9224 134.101 23.8709C134.05 23.8194 134.011 23.758 133.984 23.6906C133.958 23.6231 133.946 23.551 133.949 23.4787C133.951 23.4063 133.969 23.3353 134 23.27Z" fill="#FBF9F6"/>
<path d="M137.14 25.07L137.34 24.63L138.16 24.34C140.16 23.68 141.04 23.28 141.42 22.48C141.51 22.3479 141.567 22.196 141.587 22.0373C141.606 21.8785 141.587 21.7174 141.531 21.5675C141.475 21.4176 141.384 21.2833 141.266 21.1759C141.147 21.0684 141.005 20.991 140.85 20.95C140.425 20.7731 139.951 20.7483 139.51 20.88V20.27C140.094 20.1125 140.715 20.1693 141.26 20.43C141.48 20.5083 141.68 20.6326 141.848 20.7946C142.016 20.9565 142.147 21.1524 142.233 21.3691C142.319 21.5858 142.358 21.8184 142.347 22.0514C142.336 22.2843 142.276 22.5123 142.17 22.72C141.72 23.72 140.64 24.17 139.02 24.72L138.41 24.92L140.8 26L140.52 26.6L137.14 25.07Z" fill="#FBF9F6"/>
<path d="M146.06 26.17C145.13 27.93 143.96 28.55 142.82 27.95C141.68 27.35 141.63 26.1 142.52 24.38C143.41 22.66 144.69 22.09 145.74 22.65C146.79 23.21 146.94 24.53 146.06 26.17ZM143.21 24.76C142.5 26.11 142.51 27.09 143.14 27.43C143.77 27.77 144.64 27.15 145.35 25.83C146.06 24.51 146.14 23.55 145.42 23.17C144.7 22.79 144 23.36 143.21 24.76Z" fill="#FBF9F6"/>
<path d="M150.1 28.57C149.1 30.28 147.87 30.84 146.76 30.17C145.65 29.5 145.67 28.26 146.65 26.59C147.63 24.92 148.94 24.42 150 25C151.06 25.58 151.06 27 150.1 28.57ZM147.32 27C146.54 28.31 146.5 29.29 147.11 29.66C147.72 30.03 148.63 29.47 149.4 28.18C150.17 26.89 150.31 25.95 149.61 25.52C148.91 25.09 148.15 25.64 147.32 27Z" fill="#FBF9F6"/>
<path d="M149.09 31.48L149.36 31.07L150.21 30.92C152.21 30.58 153.21 30.33 153.73 29.6C153.839 29.4831 153.919 29.3417 153.963 29.1876C154.006 29.0336 154.012 28.8713 153.979 28.7145C153.947 28.5577 153.878 28.411 153.777 28.2867C153.676 28.1623 153.547 28.064 153.4 28C153.011 27.7611 152.553 27.6623 152.1 27.72L152.2 27.12C152.803 27.0545 153.41 27.2071 153.91 27.55C154.113 27.6637 154.291 27.8193 154.43 28.0065C154.569 28.1937 154.666 28.4082 154.716 28.6359C154.767 28.8636 154.768 29.0994 154.72 29.3276C154.672 29.5558 154.577 29.7714 154.44 29.96C153.84 30.86 152.7 31.14 151.01 31.44L150.38 31.53L152.55 33L152.18 33.55L149.09 31.48Z" fill="#FBF9F6"/>
<path d="M165.22 71L166.22 72.36L161.79 75.73L156.17 68.34L161.47 57.9L159.47 57.44L156.55 59.66L157.55 60.96L153.11 64.34L145.33 54.11L149.77 50.73L150.77 52.09L163 42.78L162 41.43L166.43 38.06L174.21 48.28L169.78 51.66L168.78 50.36L165.21 53.08L172 54.56L170.7 52.85L175.14 49.48L182.8 59.54L178.36 62.92L177.36 61.57L170.19 59.89L165.22 71Z" fill="#FBF9F6"/>
<path d="M163 79.41L168.47 78.32L168.8 79.98L183.8 76.98L183.47 75.31L188.94 74.21L193.44 96.72L183.38 98.72L181.88 91.26L186.48 90.33L185.67 86.33L180.4 87.39L181 90.3L177.2 91.06L176.61 88.13L170.68 89.32L171.49 93.32L176.76 92.26L178.25 99.73L167.52 101.88L163 79.41Z" fill="#FBF9F6"/>
<path d="M167.4 105.92L172.84 107.14L172.47 108.8L187.4 112.15L187.77 110.5L193.21 111.72L188.21 134.11L178.21 131.86L179.88 124.43L184.46 125.43L185.36 121.43L180.12 120.26L179.46 123.17L175.68 122.32L176.34 119.4L170.43 118.08L169.53 122.08L174.77 123.26L173.1 130.69L162.42 128.29L167.4 105.92Z" fill="#FBF9F6"/>
<path d="M165.2 135.3L164.2 136.66L176.38 145.91L177.38 144.56L181.82 147.93L172.82 159.82C171.06 162.15 169.2 163.54 167.27 164.01C165.34 164.48 163.27 163.86 161.01 162.16C158.75 160.46 157.62 158.61 157.55 156.63C157.48 154.65 158.33 152.48 160.1 150.15L162.34 147.15L158.44 144.15L156.44 146.75L152 143.47L160.76 131.93L165.2 135.3ZM165.46 151.04C164.66 152.09 164.84 153.04 166 153.93L167 154.67C167.442 155.066 168.017 155.28 168.61 155.27C168.878 155.228 169.135 155.13 169.362 154.982C169.59 154.833 169.783 154.639 169.93 154.41L170.63 153.49L166.19 150.12L165.46 151.04Z" fill="#FBF9F6"/>
<path d="M129 164.52C131.833 165.993 133.893 169.03 135.18 173.63C137.653 182.423 134.613 188.02 126.06 190.42C124.111 190.992 122.091 191.285 120.06 191.29C118.557 191.347 117.054 191.161 115.61 190.74L113.31 182.56L121.17 180.35L121.83 182.71C121.96 183.386 122.342 183.987 122.9 184.39C123.183 184.532 123.492 184.617 123.808 184.637C124.124 184.658 124.441 184.615 124.74 184.51C125.049 184.446 125.342 184.319 125.6 184.136C125.858 183.954 126.076 183.72 126.24 183.45C126.494 182.808 126.494 182.092 126.24 181.45L123.46 171.56C123.334 170.885 122.95 170.286 122.39 169.89C122.11 169.743 121.803 169.656 121.488 169.635C121.172 169.614 120.856 169.66 120.56 169.77C120.249 169.831 119.955 169.956 119.695 170.137C119.435 170.317 119.215 170.55 119.05 170.82C118.796 171.462 118.796 172.178 119.05 172.82L119.8 175.48L111.94 177.68L109.56 169.21C110.573 168.103 111.754 167.161 113.06 166.42C114.777 165.38 116.632 164.586 118.57 164.06C122.723 162.9 126.2 163.053 129 164.52Z" fill="#FBF9F6"/>
<path d="M74.7 183.55L76.38 183.85L79.1 168.79L77.42 168.49L78.42 163.01L91.06 165.29L90.06 170.78L88.46 170.49L87.46 176.01L92.14 176.85L93.14 171.33L91.54 171L92.54 165.52L105.19 167.8L104.19 173.29L102.52 172.99L99.8 188.08L101.47 188.38L100.47 193.87L87.82 191.59L88.82 186.1L90.43 186.39L91.35 181.3L86.66 180.46L85.75 185.54L87.35 185.83L86.35 191.32L73.71 189L74.7 183.55Z" fill="#FBF9F6"/>
<path d="M75 160.21L72 164.94L70.57 164L62.43 177L63.87 177.9L60.87 182.62L50 175.74L53 171.02L54.44 171.92L62.5 159L61.06 158.09L64.06 153.37L75 160.21Z" fill="#FBF9F6"/>
<path d="M60.3 150.9L56 154.39L54.94 153.07L43 162.65L44 164L39.66 167.49L30.66 156.31L35.01 152.81L37.01 155.25L48.93 145.67L47 143.26L44.56 145.26L40.33 140L47.11 134.54L60.3 150.9Z" fill="#FBF9F6"/>
<path d="M45.29 130.93L39.94 132.5L39.46 130.87L24.77 135.17L25.25 136.8L19.9 138.37L15.9 124.6L21.22 123L22.1 126L36.78 121.7L35.92 118.77L32.92 119.65L31.02 113.15L39.37 110.71L45.29 130.93Z" fill="#FBF9F6"/>
<path d="M39.58 106.52L34 106.25L34.08 104.55L18.8 103.8L18.72 105.5L13.15 105.22L13.78 92.32L19.35 92.59L19.27 94.29L34.56 95L34.64 93.31L40.21 93.58L39.58 106.52Z" fill="#FBF9F6"/>
<path d="M24.33 59.9L29.23 49.9L34.23 52.35L33.49 53.88L52.25 63L48.05 71.58L29.9 73.82L38.67 78.11L39.38 76.64L44.38 79.09L39.48 89.09L34.48 86.64L35.23 85.12L21.49 78.41L20.74 79.94L15.74 77.49L21.13 66.49L37.31 64.49L30.07 60.95L29.35 62.42L24.33 59.9Z" fill="#FBF9F6"/>
<path d="M44.81 45.52L43.47 42L42.27 43.15L39.27 40.01L42.71 36.72L45.71 39.87L46.46 44L44.81 45.52Z" fill="#FBF9F6"/>
<path d="M138 83.61V86.61C138 87.5489 137.627 88.4493 136.963 89.1132C136.299 89.777 135.399 90.15 134.46 90.15H134.15L134.29 89.15H72.29L72.43 90.15H71.82C70.882 90.1474 69.9831 89.7736 69.3198 89.1103C68.6565 88.4469 68.2827 87.5481 68.28 86.61V83.61C68.28 82.6711 68.653 81.7707 69.3169 81.1068C69.9808 80.443 70.8812 80.07 71.82 80.07H73.47V81.07H132.1V80.07H134.49C135.425 80.0753 136.319 80.4509 136.977 81.1145C137.635 81.7781 138.003 82.6755 138 83.61Z" fill="#FBF9F6"/>
<path d="M131 79.06H74.53C74.7686 77.6476 75.5047 76.3671 76.6051 75.4501C77.7055 74.5331 79.0977 74.04 80.53 74.06H98V75.06H107.87V74H125C126.432 73.98 127.825 74.4731 128.925 75.3901C130.025 76.3071 130.761 77.5876 131 79V79.06Z" fill="#FBF9F6"/>
<path d="M106.84 56.18V73.02H98.97V60.41L77.32 38.75L82.89 33.19L106.84 56.18Z" fill="#FBF9F6"/>
<path d="M73.55 91.14L81.47 147H125.07L133 91.14H73.55ZM87.64 118.41C86.6665 118.41 85.7148 118.121 84.9055 117.58C84.0962 117.039 83.4656 116.27 83.0936 115.37C82.7215 114.471 82.6246 113.481 82.8153 112.526C83.0059 111.572 83.4755 110.695 84.1646 110.008C84.8536 109.32 85.7312 108.852 86.6863 108.663C87.6413 108.475 88.6309 108.573 89.5297 108.947C90.4286 109.321 91.1963 109.953 91.7357 110.764C92.2751 111.574 92.562 112.527 92.56 113.5C92.56 114.146 92.4327 114.785 92.1853 115.381C91.9379 115.978 91.5753 116.519 91.1183 116.975C90.6614 117.432 90.1189 117.793 89.522 118.039C88.9252 118.285 88.2856 118.411 87.64 118.41ZM103.18 119.72C101.758 119.722 100.39 119.177 99.3584 118.198C98.3271 117.218 97.7119 115.88 97.64 114.46L100.64 114.31C100.64 114.981 100.907 115.625 101.381 116.099C101.855 116.573 102.499 116.84 103.17 116.84C103.841 116.84 104.484 116.573 104.959 116.099C105.433 115.625 105.7 114.981 105.7 114.31L108.7 114.46C108.628 115.877 108.016 117.212 106.989 118.191C105.962 119.169 104.599 119.717 103.18 119.72ZM118.91 118.41C117.936 118.412 116.983 118.125 116.173 117.585C115.362 117.045 114.73 116.277 114.356 115.377C113.983 114.478 113.885 113.488 114.074 112.533C114.264 111.577 114.732 110.7 115.421 110.011C116.11 109.322 116.987 108.854 117.943 108.664C118.898 108.475 119.888 108.573 120.787 108.946C121.687 109.32 122.455 109.952 122.995 110.763C123.535 111.573 123.822 112.526 123.82 113.5C123.82 114.802 123.303 116.051 122.382 116.972C121.461 117.893 120.212 118.41 118.91 118.41Z" fill="#FBF9F6"/>
</g>
<defs>
<clipPath id="clip0_0_5184">
<rect width="206.26" height="206.26" fill="white"/>
</clipPath>
</defs>
</svg>
