<svg width="124" height="139" viewBox="0 0 124 139" fill="none" xmlns="http://www.w3.org/2000/svg">
<path d="M0.961548 40.4273V98.4913C0.961548 102.341 3.01584 105.897 6.34622 107.817L56.6324 136.849C59.9628 138.774 64.0714 138.774 67.4018 136.849L117.688 107.817C121.023 105.893 123.073 102.336 123.073 98.4913V40.4273C123.073 36.5781 121.018 33.0217 117.688 31.1013L67.4018 2.0693C64.0672 0.144707 59.9628 0.144707 56.6324 2.0693L6.34622 31.1013C3.01584 33.0259 0.961548 36.5823 0.961548 40.4273Z" fill="#FC6C9B"/>
<path d="M22.1613 68.3255C22.3329 68.2376 22.5086 68.1539 22.6843 68.0744C25.6507 66.6979 28.6631 65.4093 31.6671 64.1248C31.8303 64.1248 32.1023 63.9365 32.2571 63.8738C32.4872 63.7734 32.7215 63.6771 32.9516 63.5767C33.3993 63.3842 33.8428 63.196 34.2904 63.0035C35.1816 62.6228 36.0728 62.242 36.9639 61.8613C38.7463 61.0998 40.5286 60.3342 42.3151 59.5727C45.8798 58.0456 49.4487 56.5226 53.0134 54.9955C56.578 53.4684 60.1469 51.9455 63.7116 50.4184C67.2763 48.8912 70.8451 47.3683 74.4098 45.8412C77.9745 44.3141 81.5433 42.7911 85.108 41.264C85.903 40.9251 86.7606 40.4147 87.6058 40.264C88.3212 40.1385 89.0157 39.8917 89.7312 39.7536C91.0951 39.4942 92.5972 39.3896 93.9026 39.9544C94.3544 40.1511 94.7686 40.4272 95.1159 40.7745C96.7685 42.4146 96.5384 45.1048 96.187 47.406C93.7477 63.4638 91.3044 79.5215 88.8651 95.5835C88.5304 97.7884 88.0786 100.202 86.3381 101.596C84.8653 102.771 82.7734 102.91 80.9576 102.403C79.1418 101.901 77.5352 100.847 75.9662 99.8051C69.4435 95.4873 62.9208 91.1653 56.3981 86.8475C54.8501 85.8225 53.1221 84.4836 53.1389 82.6218C53.1514 81.5005 53.8167 80.5048 54.4986 79.6136C60.1636 72.2206 68.3431 67.1414 74.4265 60.0873C75.2842 59.0958 75.962 57.2967 74.7821 56.7235C74.0834 56.3846 73.276 56.8448 72.6358 57.2883C64.5944 62.8738 56.5571 68.4593 48.5157 74.049C45.8924 75.8732 43.1435 77.7476 39.9805 78.1952C37.1522 78.5969 34.3072 77.8103 31.5667 77.0028C29.2739 76.3292 26.9812 75.6347 24.701 74.9234C23.4876 74.5469 22.2366 74.1411 21.2994 73.2875C20.3623 72.434 19.8267 70.9989 20.3874 69.8609C20.7388 69.1496 21.4291 68.6936 22.153 68.3296L22.1613 68.3255Z" fill="white"/>
</svg>
